<svg xmlns="http://www.w3.org/2000/svg" viewBox="0 0 1024 576.5"><defs><style>.ef22307a-61fd-4e15-9069-fea4defc4736{fill:#4c4c4c;}.\33 77b7415-4328-4133-a47c-0bf76e5f085d{fill:#fefefe;}.\35 a22268a-f95f-4884-9ef7-421d1ae2da2a{fill:#d1d1d1;}.\35 3c4dd56-5644-4a6c-afc5-11d617bee313{fill:#757575;}.\36 ecf38b9-209b-4066-a12a-f52f75ced41d{fill:#fdfdfd;}.\30 d8cf6dd-cbed-41f9-b153-aed8530bc097{fill:#fcfcfc;}.fe4d15c5-1516-410d-8599-519d3034a8b1{fill:#0e0e0e;}.e2705f1c-3c56-4519-a0e0-3f428116a759{fill:#4d4d4d;}.c1c51d64-c951-4009-bd24-0c1418aeba57{fill:#adadad;}.b7ddf4f9-2373-4745-810b-42240094422e{fill:#acacac;}.\39 d7686f1-2793-45a9-9f63-580f76a3cb8b{fill:#ababab;}.df1c233b-becc-4396-9881-cfc1a8a829d4{fill:#4f4f4f;}.\33 873567d-0c2e-4925-a858-55c584580d27{fill:#0c0c0c;}.b880dbed-957b-4efb-beea-a19b71884335{fill:#7d7d7d;}.\32 1ecaa79-601d-49ca-8f4f-5cc24b402291{fill:#7e7e7e;}.\38 cb76721-28e6-43f0-af9d-6f202e14ea77{fill:#7f7f7f;}.\31 6367982-6d47-4042-8c5e-1e6e4498f31c{fill:#848484;}.b4738feb-d7e5-4a41-a513-dc123cca8201{fill:#858585;}.\36 c3f6662-0b76-44de-989a-3e7422384983{fill:#5c5c5c;}</style></defs><title>minesweeper</title><g id="1c7e19e2-e8ba-482d-b2d3-675d9068ed45" data-name="Layer 2"><g id="c2bf7927-ab2c-4a36-8cba-371a4ad82ed8" data-name="Layer 1"><path class="ef22307a-61fd-4e15-9069-fea4defc4736" d="M1024,.63V575.87c-1,.59-2.07.3-3.11.3q-508.89,0-1017.79,0c-1,0-2.12.29-3.1-.3V.63C1,0,2.07.33,3.11.33Q512,.3,1020.89.33C1021.93.33,1023,0,1024,.63Z"/><path class="377b7415-4328-4133-a47c-0bf76e5f085d" d="M0,575.87H1024a13.8,13.8,0,0,1-2.86.61q-509.14,0-1018.28,0A13.8,13.8,0,0,1,0,575.87Z"/><path class="377b7415-4328-4133-a47c-0bf76e5f085d" d="M1024,.63H0A13.8,13.8,0,0,1,2.86,0Q512,0,1021.14,0A13.8,13.8,0,0,1,1024,.63Z"/><path class="5a22268a-f95f-4884-9ef7-421d1ae2da2a" d="M717.57,288.65l0,205.1c-.92.81-2,.43-3,.43q-140.95,0-281.89,0c-3.74,0-3.61,0-3.78-3.74-.51-11.35-.1-22.7-.26-34.05-.19-13.61.27-27.22,0-40.83,0-.25.18-.4.14-.76-.48-4.63-.45-4.61,4.15-4.56,10,.1,19.92,0,29.87,0h42.87c5.16,0,5.28,0,5.17-5.3-.21-10.26,0-20.52-.09-30.79,0-.72-.27-1.34-.29-2.06,0-2.22.36-2.74,2.55-2.7,10.13.18,20.26,0,30.4,0,15.72,0,31.45.16,47.17,0,12.53-.1,25.06.21,37.59,0,3.75-.05,5.09-1.17,5.71-5.28a37.94,37.94,0,0,0,.18-5.4c.08-9.74-.13-19.48.09-29.22a2,2,0,0,1,.76-1,7.54,7.54,0,0,1,3.44-.3c9.84,0,19.68.08,29.51,0,6.83-.06,7.45-.7,7.43-7.55,0-10.33.45-20.66-.21-31-.1-1.6.59-2.94,2.62-2.89,11.84.31,23.69,0,35.53.19C714.74,287.05,716.49,287.12,717.57,288.65Z"/><path class="53c4dd56-5644-4a6c-afc5-11d617bee313" d="M635,329.24c-.25,13.6,4.74,33.68-2.06,39.17-8.6,6.94-26.79,2.14-40.84,2.17q-38.13.1-76.27-.14c-3.41,0-4.25,1.14-4.27,4.39-.21,36.39-.24,36.4-36.47,36.58-3.39,0-6.92-.63-10.13.13-11.68,2.76-28.14-7.87-34.42,5.12-5.06,10.48-.8,25.35-1.05,38.27-.75,39-.83,39.06,38,39q125-.08,250.1-.22a29.15,29.15,0,0,1-4.9.83q-200.65,0-401.3-.05c-3.3,0-5.71-.21-5.7-4.62q.14-162.68.11-325.36c1.25-1.59,3-1.52,4.79-1.52H457.71c10.17,0,11.05-.9,11.06-11.06,0-8.58,0-17.16,0-25.74,0-3.92.53-4.45,4.43-4.49,8.69-.08,17.37,0,26.06,0a46.72,46.72,0,0,0,4.76-.13c4-.42,5.66-2,5.92-6.09.33-5.18.18-10.38.11-15.57-.08-5.58.69-11.25-1.39-16.68-.15-.38.13-.82.38-1.17q102.43,0,204.87-.06c3.29,0,3.71,2,3.71,4.62q-.05,101-.06,202c-12.69-.16-25.38-.4-38.07-.36-1,0-2.76,1.85-2.91,3-1.64,12.6,5.94,30.2-3.18,36.65-8.75,6.18-25.3,1.33-38.42,1.33-1.86-1.43-1.57-3.51-1.57-5.46q0-32.08,0-64.16a35.05,35.05,0,0,0-.23-5.71c-.5-3-1.91-4.7-5-4.86a271.11,271.11,0,0,0-27.61,0c-3.23.16-4.64,1.85-5.12,5.07a30.35,30.35,0,0,0-.19,4.44q0,29.7,0,59.39c0,8.47,1.21,9.63,9.82,9.66,8.36,0,16.73,0,25.09,0C632,327.68,633.77,327.6,635,329.24Z"/><path class="5a22268a-f95f-4884-9ef7-421d1ae2da2a" d="M509.05,82.08c5.32,3.6,2.32,9,2.37,13.35.33,27.8.15,28.46-27.46,27.48-11.44-.41-14.31,2.47-13.92,13.91,1,27.86.31,27.9-27.66,27.88q-68.29-.06-136.59-.15c0-26.06,0-52.12-.18-78.18,0-3.6,1.12-4.36,4.5-4.36Q409.58,82.14,509.05,82.08Z"/><path class="6ecf38b9-209b-4066-a12a-f52f75ced41d" d="M514.58,62.43c.46-5.76.86-11.56,7-14.25,3.82-1.67,7.78-1.36,10.84,1.83.88.92.87,2.69,1.27,4.06-1.56-.28-3.11-.57-4.68-.83-2-.33-4.35-1.4-5.9-.71s-2,3.2-2.88,4.91c1.58,0,3.16,0,4.74-.09,6-.18,9.91,2.5,10.23,8.69s-2.91,10.25-9.35,10.34C516.42,76.52,515.07,69.71,514.58,62.43Z"/><path class="0d8cf6dd-cbed-41f9-b153-aed8530bc097" d="M498.13,76.65c-3.07-.62-8.89-.63-9.3-2.11-1.25-4.55,3.44-7.06,6.36-10,3.13-3.17,10.1-5.22,7-10.76-3-5.25-6.72-1.22-9.55,2.06-.43.5-2.54,0-3.47-.61-.42-.28-.13-2.21.36-3.12,2.22-4.09,6.08-5,10.31-4.71,3.71.25,6.9,1.58,8.05,5.54,1.47,5-1.67,8.13-5,11.14-2.52,2.3-4.95,4.69-7.42,7,3.34.19,6.7.19,10,.66a6.21,6.21,0,0,1,3.05,2.16C506.13,78.61,501.75,74.57,498.13,76.65Z"/><path class="fe4d15c5-1516-410d-8599-519d3034a8b1" d="M704.25,305.11c9.69,3.68-5.8,9,.85,12.9-2.58-6.46-7.85,6.35-10.24-1.43-7,2.72-5.79-2.8-6.43-6.44a1.64,1.64,0,0,1,.22-2.58,2.29,2.29,0,0,0,.94-1.29c.36-2.66,2.38-3.68,4.42-4.8s4.06-.33,6.16-.19C702.86,301.47,704,302.61,704.25,305.11Z"/><path class="e2705f1c-3c56-4519-a0e0-3f428116a759" d="M704.25,305.11c-8.17-7.46-11.78-.53-15.82,5L684.1,308l3.78-1.68c.19-.08.4-.14.6-.21-4.06-8.44,8.22-3.87,7.65-9.57,0-.21.57-.49.88-.73a9.15,9.15,0,0,1,1.2,2.06c.72,2.6,1.68,4.26,4.54,2,.83-.66,2.28-2.62,2.65.12C705.62,301.62,704.67,303.4,704.25,305.11Z"/><path class="5a22268a-f95f-4884-9ef7-421d1ae2da2a" d="M635,329.24c-12.29,0-24.57-.13-36.86,0-3.36,0-4.48-1.28-4.47-4.49q.09-36.86,0-73.71c0-2.86,1-4.19,3.87-3.83a4.91,4.91,0,0,0,.64,0c36.73-.32,36.72-.32,36.72,36.33q0,22.88.07,45.75Z"/><path class="c1c51d64-c951-4009-bd24-0c1418aeba57" d="M468.28,265.6c6.6,34.27-19.24,21.66-29.79,20-17.81-2.86-8.08-21.27-6.38-29.72,3.38-16.8,19.8-5.74,30-6.57C477.68,248,463.62,262.4,468.28,265.6Z"/><path class="c1c51d64-c951-4009-bd24-0c1418aeba57" d="M571.25,84.75c34-6.76,21.76,18.84,20.07,29.46-2.8,17.64-21.07,8.33-29.59,6.65-17.46-3.45-5.87-20-6.69-30.21C553.81,75.52,568.07,89.35,571.25,84.75Z"/><path class="c1c51d64-c951-4009-bd24-0c1418aeba57" d="M448.06,290.66c34-6.73,21.61,18.9,19.94,29.47-2.84,18.08-21.36,8.38-29.8,6.63-16.51-3.43-5.84-19.82-6.55-30C430.58,281.5,444.71,295,448.06,290.66Z"/><path class="c1c51d64-c951-4009-bd24-0c1418aeba57" d="M426.87,306.88c7,33.63-18.11,21.49-28.88,20.07-19.27-2.54-8.54-21.14-7.1-29.53,3.07-17.87,19.84-5.89,30-6.81C436,289.23,422.6,303.59,426.87,306.88Z"/><path class="c1c51d64-c951-4009-bd24-0c1418aeba57" d="M596.4,104.94c-6.74-33.9,18.75-21.51,29.47-20,18.25,2.61,8.12,20.87,6.64,29.24-3.19,18-20,6.14-30.19,7C587.29,122.47,600.68,108.32,596.4,104.94Z"/><path class="c1c51d64-c951-4009-bd24-0c1418aeba57" d="M410.71,285.79c-33.57,6.89-21.47-18.23-20-28.92,2.65-19.1,21.43-8.75,29.77-7.1,16.67,3.3,5.83,19.78,6.58,29.95C428.19,295,414,281.49,410.71,285.79Z"/><path class="b7ddf4f9-2373-4745-810b-42240094422e" d="M612.85,126c33.51-6.55,21,18.37,19.81,29.2-2,18.29-19.55,8-27.93,7.06-20.92-2.38-7.17-20.19-8.27-30.31C594.8,116.71,609.53,130.64,612.85,126Z"/><path class="c1c51d64-c951-4009-bd24-0c1418aeba57" d="M571.36,126.06c33.78-6.84,21.4,18.35,20.05,29.2-2.25,18.1-20,8.07-28.44,7-20.1-2.61-6.7-20-7.83-30.12C553.44,117,568,130.36,571.36,126.06Z"/><path class="c1c51d64-c951-4009-bd24-0c1418aeba57" d="M344.31,265.66c6.9,33.6-18.36,21.64-28.91,20-17.85-2.85-8.3-21-6.72-29.58,3.17-17.17,19.58-6,29.57-6.73C353.49,248.12,340,262.34,344.31,265.66Z"/><path class="c1c51d64-c951-4009-bd24-0c1418aeba57" d="M410.88,244.44c-33.5,7-21.78-18-20.14-28.77,2.8-18.29,21-8.28,29.51-6.77,17.49,3.13,6,19.71,6.77,29.74C428.23,253.75,414,239.95,410.88,244.44Z"/><path class="c1c51d64-c951-4009-bd24-0c1418aeba57" d="M673.68,101.21c6.63,33.23-18.17,21.25-28.69,19.77-19-2.69-8.4-21.18-6.94-29.61,3-17.18,19.5-6,29.46-6.71C683.12,83.48,668.94,98,673.68,101.21Z"/><path class="c1c51d64-c951-4009-bd24-0c1418aeba57" d="M679.05,104.9C672.17,71.34,697.39,83.3,708,85c18,2.82,8.27,21,6.71,29.56-3.13,17.14-19.55,5.94-29.54,6.73C669.86,122.44,683.34,108.22,679.05,104.9Z"/><path class="c1c51d64-c951-4009-bd24-0c1418aeba57" d="M451.77,244.53c-33.43,6.61-21.39-18.46-19.77-28.91,2.81-18.13,21-8.23,29.57-6.73,17.39,3,6,19.54,6.77,29.49C469.54,254,455,239.72,451.77,244.53Z"/><path class="c1c51d64-c951-4009-bd24-0c1418aeba57" d="M550.24,306.91c6.85,33.6-18.4,21.67-28.94,20-17.72-2.87-8.35-21-6.72-29.62,3.23-17.13,19.61-5.9,29.62-6.7C559.87,289.3,545.45,303.79,550.24,306.91Z"/><path class="c1c51d64-c951-4009-bd24-0c1418aeba57" d="M509,306.77c7,33.74-18.26,21.78-28.88,20.12-18.07-2.82-8.26-21.06-6.7-29.57,3.19-17.43,19.75-5.94,29.79-6.73C518.21,289.43,504.54,303.63,509,306.77Z"/><path class="c1c51d64-c951-4009-bd24-0c1418aeba57" d="M571.3,167.37c33.57-6.85,21.8,18.38,20.06,29-2.91,17.83-21.12,8.23-29.64,6.61-17.22-3.28-5.95-19.79-6.68-29.86C554,158.26,567.94,171.53,571.3,167.37Z"/><path class="c1c51d64-c951-4009-bd24-0c1418aeba57" d="M385.68,307.25c6.57,33.41-18.56,21.25-29,19.63-18.08-2.81-8.33-21.08-6.73-29.57,3.25-17.31,19.82-6,29.86-6.7C395,289.62,381.14,303.83,385.68,307.25Z"/><path class="c1c51d64-c951-4009-bd24-0c1418aeba57" d="M344.16,306.73c7.45,32.79-16.75,21.72-27.78,20.34-20.12-2.52-9-21.34-7.62-29.71,3-17.49,19.68-6,29.72-6.77C353.48,289.41,340.08,303.51,344.16,306.73Z"/><path class="c1c51d64-c951-4009-bd24-0c1418aeba57" d="M514.37,269.67c-7-33.56,18.23-21.78,28.87-20.07,18.25,2.93,8.34,21.32,6.71,29.85-3.26,17-19.7,5.69-29.74,6.46C505.2,287.07,518.53,273,514.37,269.67Z"/><path class="c1c51d64-c951-4009-bd24-0c1418aeba57" d="M473.18,269.71c-7.06-33.48,18-21.81,28.76-20.12,18.48,2.91,8.4,21.33,6.8,29.83-3.23,17.1-19.7,5.72-29.75,6.5C463.91,287.1,477.39,273,473.18,269.71Z"/><path class="c1c51d64-c951-4009-bd24-0c1418aeba57" d="M385.58,471.52c7,33.52-18.13,21.67-28.82,20.05-18.3-2.78-8.28-21-6.79-29.52,3-17.36,19.51-5.93,29.49-6.79C394.89,453.93,381.28,468.26,385.58,471.52Z"/><path class="c1c51d64-c951-4009-bd24-0c1418aeba57" d="M344.32,471.52c6.85,33.72-18.5,21.71-29.14,20-17.86-2.84-7.93-20.88-6.51-29.47,2.89-17.44,19.27-5.83,29.15-6.82C353.72,453.64,340,468.26,344.32,471.52Z"/><path class="c1c51d64-c951-4009-bd24-0c1418aeba57" d="M451.77,367.9C418.31,374.51,430.33,349.38,432,339c2.94-18.18,21.27-8.3,29.86-6.69,16.87,3.15,5.76,19.49,6.48,29.44C469.5,377.37,455,363.12,451.77,367.9Z"/><path class="c1c51d64-c951-4009-bd24-0c1418aeba57" d="M406.75,332c33.61-7,21.63,18.24,20,28.84-2.81,18.12-21,8.24-29.54,6.72-17.26-3.08-5.92-19.52-6.74-29.49C389.19,322.78,403.47,336.33,406.75,332Z"/><path class="c1c51d64-c951-4009-bd24-0c1418aeba57" d="M385.58,265.62c7,33.66-18.28,21.65-28.88,20-18.15-2.81-8.26-21-6.73-29.58,3.1-17.23,19.56-6,29.55-6.75C394.82,248.08,381.31,262.33,385.58,265.62Z"/><path class="c1c51d64-c951-4009-bd24-0c1418aeba57" d="M611.95,168.27c23.64-8,21.16,5.48,22,19.21,1.95,30.38-21.6,16.9-31,15.45-17.1-2.65-5.89-19.45-6.72-29.45C595,157.93,609.42,171.94,611.95,168.27Z"/><path class="9d7686f1-2793-45a9-9f63-580f76a3cb8b" d="M385.67,430.43c6.57,33.57-18.58,21.43-29.15,19.83-17.78-2.69-7.91-20.48-6.64-29.17,2.61-17.86,19-6,28.72-7.15C395.2,412,381.34,427.1,385.67,430.43Z"/><path class="c1c51d64-c951-4009-bd24-0c1418aeba57" d="M653.84,126c33.29-6.6,20.73,18.13,19.76,29-1.67,18.72-19.2,8.08-27.37,7.21-21-2.23-7.3-20.08-8.51-30.21C635.92,116.88,650.51,130.41,653.84,126Z"/><path class="c1c51d64-c951-4009-bd24-0c1418aeba57" d="M679,146.08c-6.66-33.49,18.37-21.37,28.9-19.85,18.44,2.66,7.95,20.66,6.77,29.32-2.39,17.47-18.64,5.88-28.29,7.06C669.19,164.72,683.65,149.23,679,146.08Z"/><path class="c1c51d64-c951-4009-bd24-0c1418aeba57" d="M328.46,450.47c-33.48,6.78-21-18.08-20-29.1,1.68-18.21,18.95-8,27.17-7.18,21.68,2.18,7.31,20.23,8.63,30.39C346.21,459.28,331.77,446.32,328.46,450.47Z"/><path class="c1c51d64-c951-4009-bd24-0c1418aeba57" d="M344.43,389.62c6.31,33.16-18.56,20.75-29,19.36-18.48-2.46-8.17-20.57-6.79-28.89,3-18.08,19.66-6.07,29.63-6.94C353.51,371.82,340,386.2,344.43,389.62Z"/><path class="c1c51d64-c951-4009-bd24-0c1418aeba57" d="M385.76,389.67c6.1,33.2-18.79,20.72-29.1,19.29-18.23-2.53-8.14-20.61-6.71-29,3-17.61,19.49-6.06,29.43-6.9C395.18,371.76,380.89,386.41,385.76,389.67Z"/><path class="c1c51d64-c951-4009-bd24-0c1418aeba57" d="M328.06,244.58c-33.15,6.37-21-18.48-19.47-28.88,2.62-18.34,20.86-8.31,29.17-6.78,17.1,3.15,5.91,19.54,6.71,29.53C345.71,254.1,331.25,239.75,328.06,244.58Z"/><path class="c1c51d64-c951-4009-bd24-0c1418aeba57" d="M385.71,224.82C392.07,258,368,241.9,356.44,245.15c-9.36,2.64-7.57-5-7.58-10.31,0-27.07,0-27.48,30.47-26.89C395.12,208.27,381.27,221.48,385.71,224.82Z"/><path class="c1c51d64-c951-4009-bd24-0c1418aeba57" d="M550.33,224.86c6.38,33.31-18.65,21-29.09,19.46-18.06-2.6-8.14-20.66-6.66-29,3.1-17.43,19.52-5.95,29.49-6.81C559.5,207.16,545.9,221.5,550.33,224.86Z"/><path class="c1c51d64-c951-4009-bd24-0c1418aeba57" d="M715,224.75c6.55,33.29-18.46,21.1-29,19.6-18.41-2.64-8.22-20.93-6.69-29.2,3.16-17.11,19.57-5.8,29.59-6.64C724.18,207.22,710.64,221.4,715,224.75Z"/><path class="c1c51d64-c951-4009-bd24-0c1418aeba57" d="M697,205.87c-5.21-6.84-18.82,7.27-18.78-10,.07-29.35.22-31.45,29.69-28.58,18.62,1.82,6,19.49,7.2,29.31C717.08,212.65,702.2,199,697,205.87Z"/><path class="c1c51d64-c951-4009-bd24-0c1418aeba57" d="M489.12,208.6c33.12-6.66,21.32,18.19,19.78,28.84-2.65,18.34-20.87,8.3-29.19,6.79-17.17-3.12-5.84-19.5-6.73-29.5C471.61,199.34,485.81,212.91,489.12,208.6Z"/><path class="c1c51d64-c951-4009-bd24-0c1418aeba57" d="M328.39,367.89C295.12,374.57,307,349.65,308.58,339c2.64-18.34,20.88-8.29,29.18-6.76,17.09,3.13,5.85,19.51,6.72,29.52C345.84,377.34,331.46,363.18,328.39,367.89Z"/><path class="c1c51d64-c951-4009-bd24-0c1418aeba57" d="M534.14,203.35c-33.27,6.56-21.18-18.45-19.65-29,2.67-18.4,21-8.23,29.26-6.69,17.1,3.17,5.76,19.57,6.62,29.6C551.69,212.56,537.48,199,534.14,203.35Z"/><path class="c1c51d64-c951-4009-bd24-0c1418aeba57" d="M653.54,167.38c33.29-6.88,21.51,18,20,28.7-2.59,18.48-20.84,8.46-29.13,6.93-17.46-3.21-5.92-19.73-6.79-29.81C636.35,158.31,650.45,171.83,653.54,167.38Z"/><path class="c1c51d64-c951-4009-bd24-0c1418aeba57" d="M349.56,351.56c-6.19-33.3,18.91-20.88,29.25-19.35,17.8,2.63,8.12,20.67,6.57,29-3.18,17.29-19.55,5.93-29.52,6.76C340.56,369.27,354,355,349.56,351.56Z"/><path class="b7ddf4f9-2373-4745-810b-42240094422e" d="M388,432.48c6.92-5.34-7.5-19.39,10.53-19.26,29.27.22,31.58.3,28.41,30.27-1.93,18.22-20.1,6-30.26,7.07C381.31,452.09,394.87,437.75,388,432.48Z"/><path class="c1c51d64-c951-4009-bd24-0c1418aeba57" d="M427.06,471.94c6.2,33.64-19.1,21.11-29.61,19.58-18.15-2.63-8-20.84-6.6-29.28,3.1-18,19.85-6,29.94-6.92C436.31,454,422.47,468.5,427.06,471.94Z"/><path class="c1c51d64-c951-4009-bd24-0c1418aeba57" d="M575.53,244.45c-33.75,7-21.95-18.36-20.19-29,3-18,21.22-8.09,29.76-6.51,17.23,3.18,5.74,19.65,6.56,29.68C592.91,253.79,578.63,239.92,575.53,244.45Z"/><path class="c1c51d64-c951-4009-bd24-0c1418aeba57" d="M410.83,409.06c-33.34,7.17-21.64-17.68-20.14-28.47,2.67-19.2,21.24-8.53,29.61-7,17.32,3.07,6,19.71,6.73,29.77C428.15,418.26,414.12,405,410.83,409.06Z"/><path class="c1c51d64-c951-4009-bd24-0c1418aeba57" d="M616.51,244.55c-33.43,6.71-21.58-18.45-19.86-29,2.88-17.65,21-8.31,29.58-6.69,17.07,3.24,5.92,19.59,6.68,29.58C634.06,253.67,619.87,240.22,616.51,244.55Z"/><path class="c1c51d64-c951-4009-bd24-0c1418aeba57" d="M406.75,167.35c33.74-6.83,21.64,18.54,20,29.16-2.82,17.88-20.94,8-29.45,6.51-17.36-3.06-6-19.53-6.82-29.51C389.13,158.09,403.45,171.7,406.75,167.35Z"/><path class="c1c51d64-c951-4009-bd24-0c1418aeba57" d="M452.09,409.12c-33.6,6.9-21.82-18.34-20.08-29,2.9-17.85,21.1-8.24,29.63-6.62,17.25,3.27,5.95,19.78,6.7,29.84C469.44,418.25,455.43,405,452.09,409.12Z"/><path class="c1c51d64-c951-4009-bd24-0c1418aeba57" d="M616.6,367.88c-33.77,6.81-21.68-18.66-19.93-29.18,3-17.85,21.22-8,29.77-6.41,16.84,3.14,5.69,19.45,6.49,29.42C634.18,377.11,619.92,363.55,616.6,367.88Z"/><path class="c1c51d64-c951-4009-bd24-0c1418aeba57" d="M679.08,269.62c-7-33.64,18.28-21.67,28.87-20,18,2.83,8.31,21.08,6.72,29.58-3.24,17.32-19.79,6-29.85,6.71C670,287,683.28,273,679.08,269.62Z"/><path class="c1c51d64-c951-4009-bd24-0c1418aeba57" d="M511.69,102.69c6.82-5.28-7.16-18.85,10.11-18.8,29.28.1,31.4.23,28.5,30-1.8,18.58-19.63,6.26-29.48,7.26C504.89,122.83,518.69,108,511.69,102.69Z"/><path class="c1c51d64-c951-4009-bd24-0c1418aeba57" d="M451.92,203.33c-33.66,6.66-21.64-18.69-19.9-29.26,3-17.89,21.19-8,29.73-6.44,17.12,3.15,5.78,19.59,6.58,29.58C469.56,212.49,455.29,199,451.92,203.33Z"/><path class="c1c51d64-c951-4009-bd24-0c1418aeba57" d="M550.08,142.12c7.32,32.13-16.19,21.56-27.38,20.34-21.19-2.32-9.34-21.53-8-29.81,2.79-17.12,19.43-5.92,29.42-6.73C559.45,124.69,545.91,138.94,550.08,142.12Z"/><path class="c1c51d64-c951-4009-bd24-0c1418aeba57" d="M591.73,266.07c6.11,33.86-19.56,21.13-29.91,19.47-17.79-2.84-8.12-21.3-6.37-29.7,3.52-16.9,20.06-5.9,30.29-6.52C600.92,248.38,587.08,262.54,591.73,266.07Z"/><path class="c1c51d64-c951-4009-bd24-0c1418aeba57" d="M555,310.58c-6.17-34,19.46-21.28,29.86-19.63,17.84,2.84,8.11,21.3,6.39,29.69-3.48,17-20,5.89-30.26,6.55C545.7,328.17,559.82,313.91,555,310.58Z"/><path class="c1c51d64-c951-4009-bd24-0c1418aeba57" d="M657.41,244.59c-33.28,6.36-21-18.63-19.49-29.08,2.63-18,20.64-8.11,29-6.63,17.52,3.08,6,19.51,6.85,29.46C675.11,253.71,660.8,240.21,657.41,244.59Z"/><path class="c1c51d64-c951-4009-bd24-0c1418aeba57" d="M492.61,368c-33.11,6.25-20.78-18.65-19.31-29,2.62-18.31,20.79-8.17,29.18-6.74,17.41,3,5.77,19.37,6.69,29.26C510.64,377.43,496,363.36,492.61,368Z"/><path class="c1c51d64-c951-4009-bd24-0c1418aeba57" d="M509,183.2c6.77,33.27-18.09,21.48-28.8,19.95-18.31-2.63-8.35-20.79-6.86-29.16,3.09-17.38,19.48-5.82,29.48-6.79C518.49,165.69,504.39,180.17,509,183.2Z"/><path class="c1c51d64-c951-4009-bd24-0c1418aeba57" d="M344.32,183.28c6.87,33.3-18.08,21.39-28.75,19.87-18.33-2.61-8.39-20.81-6.88-29.16,3.12-17.28,19.51-5.87,29.52-6.78C353.52,165.81,340.16,180,344.32,183.28Z"/><path class="c1c51d64-c951-4009-bd24-0c1418aeba57" d="M530.59,331.92c33.36-6.38,21,18.69,19.46,29.09-2.63,17.93-20.64,8.1-29,6.61-17.48-3.1-6-19.52-6.82-29.48C512.91,322.82,527.2,336.29,530.59,331.92Z"/><path class="c1c51d64-c951-4009-bd24-0c1418aeba57" d="M367.51,205.88c-5.35-6.63-18.73,7-18.68-10,.08-29.39.24-31.55,29.7-28.59,18.38,1.85,6.17,19.66,7.22,29.56C387.44,212.88,372.62,198.75,367.51,205.88Z"/><path class="c1c51d64-c951-4009-bd24-0c1418aeba57" d="M571.51,332c33.4-6.66,21.57,18.49,19.85,29-2.92,17.87-21.11,8.2-29.67,6.61-17.1-3.18-5.92-19.61-6.66-29.6C553.88,322.66,568.15,336.45,571.51,332Z"/><path class="c1c51d64-c951-4009-bd24-0c1418aeba57" d="M673.72,307c6.63,33.7-18.8,21.69-29.33,19.89-17.72-3-8.05-21.32-6.36-29.85,3.35-16.91,19.76-5.68,29.82-6.4C682.73,289.54,669.51,303.53,673.72,307Z"/><path class="c1c51d64-c951-4009-bd24-0c1418aeba57" d="M473.12,146.06c-6.72-33.48,18.29-21.33,28.82-19.84,18.27,2.6,8,20.5,6.89,29.2-2.4,18-18.77,5.94-28.42,7.14C463.54,164.67,477.32,149.4,473.12,146.06Z"/><path class="c1c51d64-c951-4009-bd24-0c1418aeba57" d="M637.78,269.62c-7-33.65,18.31-21.67,28.89-20,17.91,2.84,8.32,21,6.74,29.59-3.17,17.15-19.58,5.94-29.57,6.73C628.55,287.15,642.06,272.91,637.78,269.62Z"/><path class="c1c51d64-c951-4009-bd24-0c1418aeba57" d="M489.19,373.39c31.73-7.23,20.82,15.85,20,26.88-1.65,22.22-21.12,9.69-29.22,8.52-18.11-2.62-6-19.48-6.94-29.46C471.53,363.72,486.16,377.9,489.19,373.39Z"/><path class="df1c233b-becc-4396-9881-cfc1a8a829d4" d="M530,66.9c-.12,3.18-1.44,5.39-4.92,5.24s-4.72-2.76-4.85-5.87c-.14-3.36,1.85-4.77,5-4.73C528.69,61.58,530,63.68,530,66.9Z"/><path class="3873567d-0c2e-4925-a858-55c584580d27" d="M621.64,304.46l4.52,4.5c-6.56,4.25-12.68,16.63-20.31,1.09-.51-.65-.56-1.71-.18-2,2.23-1.92,2.7-5.39,6-6.41,1.61-.5,3.1-1.45,4.77-.6a2.94,2.94,0,0,0,1.74.46C620.91,300.74,621.33,302.5,621.64,304.46Z"/><path class="3873567d-0c2e-4925-a858-55c584580d27" d="M621.62,263.15c4.23,4,.58,7.93-1.31,10.62-1.47,2.1-6.75.85-8.76,1.58-9.81,3.56-2.39-5.48-5.29-6.37-.34-1.62,1.62-6.2,2.75-7.14,3.38-2.81,7.09-2.4,10.93-1.43C621.44,260.8,620.88,262.36,621.62,263.15Z"/><path class="df1c233b-becc-4396-9881-cfc1a8a829d4" d="M621.62,263.15c-8.16-6.05-11.52.53-15.36,5.84l-4.65-2.19c1.26-.54,3.67-1.37,3.62-1.59-1.81-7.2,6.7-4.88,8.17-8.94a7.16,7.16,0,0,1,1.2-1.63c.41.55,1,1.06,1.19,1.67.78,3.19,1.87,4.51,5.16,2,3-2.25,2.17.29,1.75,1.83C622.42,261.19,622,262.16,621.62,263.15Z"/><path class="df1c233b-becc-4396-9881-cfc1a8a829d4" d="M621.64,304.46c-8.29-6.66-11.68.49-15.79,5.6l-4.14-1.92,3.66-1.74a5.13,5.13,0,0,1,.6-.2c-3.64-8.09,7.69-4.16,7.62-9.44,0-.31.69-.63,1.06-.94a6.07,6.07,0,0,1,1.15,1.72c.77,3.25,2,4.6,5.13,1.94,1.95-1.68,2.68-.93,1.94,1.41C622.5,302.09,622.06,303.27,621.64,304.46Z"/><path class="b880dbed-957b-4efb-beea-a19b71884335" d="M407.07,443.7l-4.73-1.18c1.39-1,4-1.91,4-2.87,0-4.16,5.6-9.9-2.82-12.14-.41-.11-.91-1.54-.8-1.63a42.09,42.09,0,0,1,6-4.17c.32-.17,2.06,1.42,2.46,2.46,2.15,5.62-4.28,13.63,5,17.46C417.51,442.19,415.63,443.7,407.07,443.7Z"/><path class="21ecaa79-601d-49ca-8f4f-5cc24b402291" d="M407.06,485c-.21,0-3.89,0-4.47-1.26-1.41-3.17,2.77-1.88,4-3.34,2.4-2.85.38-10.61-3.09-11.59-.43-.12-1-1.51-.88-1.6a50.13,50.13,0,0,1,6.11-4.54c.25-.15,2,1.41,2.41,2.43,2,5.68-4.08,13.61,5.09,17.51C417.71,483.23,415.46,485,407.06,485Z"/><path class="21ecaa79-601d-49ca-8f4f-5cc24b402291" d="M571.68,237.78l-4.7-1.22a34.35,34.35,0,0,0,4.16-2.89c2.7-2.5.49-10.93-3-12-.43-.14-.95-1.55-.84-1.63a41.7,41.7,0,0,1,6-4.19c.34-.18,2.11,1.37,2.49,2.4,2.1,5.66-4.16,13.65,5.05,17.53C582.12,236.28,580.23,237.78,571.68,237.78Z"/><path class="b880dbed-957b-4efb-beea-a19b71884335" d="M409.22,402.85l-6.77-1.45c1.37-1,4-2.15,3.9-3.11-.24-4.09,5.69-9.93-2.91-12-.37-.09-.88-1.33-.79-1.41a43.79,43.79,0,0,1,5.8-4.43c.39-.23,2.23,1,2.59,1.89,2.31,5.8-4.12,13.89,5,18.43C416.8,401.16,411.59,401.27,409.22,402.85Z"/><path class="21ecaa79-601d-49ca-8f4f-5cc24b402291" d="M614.64,238.21l-6.71-1.51c1.44-1,3.83-1.72,4.13-3a41.24,41.24,0,0,0,1-10.8c-.1-3-2.46-1.07-3.89-1.24-.4,0-1-1.48-1-1.54a38.41,38.41,0,0,1,5.93-4.35c.49-.26,2.48,1,2.84,2,2.25,5.84-4.13,14,5,18.48C622.39,236.47,617.2,236.6,614.64,238.21Z"/><path class="b880dbed-957b-4efb-beea-a19b71884335" d="M409.1,197.61l-6.92-2.18c1.39-1,3.71-1.7,4-2.9a55.81,55.81,0,0,0,1-11.06c0-.32-2.2-.58-3.28-1.07-.52-.23-.82-.94-1.22-1.44a52.64,52.64,0,0,1,5.77-4.41c.38-.23,2.34,1.13,2.69,2.09,2.15,5.81-4,13.69,5,18.36C417.27,195.6,411.43,195.6,409.1,197.61Z"/><path class="21ecaa79-601d-49ca-8f4f-5cc24b402291" d="M448.19,402.43l-5-1.22c1.37-1,3.91-1.94,3.92-2.94.06-4.07,5.12-9.5-2.61-11.9-.46-.14-1-1.5-1-1.55a45.8,45.8,0,0,1,6.23-4.4c.38-.21,2.25,1.26,2.61,2.25,2.09,5.75-4.1,13.78,5,17.79C458.63,401,456.76,402.43,448.19,402.43Z"/><path class="8cb76721-28e6-43f0-af9d-6f202e14ea77" d="M612.89,361.65l-5.12-1.53c1.46-1,3.88-1.76,4.2-3a41.08,41.08,0,0,0,1-10.77c-.07-2.74-2.26-1.09-3.64-1.14-.4,0-1.11-1.4-1.09-1.42a49.08,49.08,0,0,1,6.15-4.57c.35-.2,2.24,1.25,2.6,2.24,2.07,5.78-4.1,13.82,5.14,17.85C623.63,359.89,621.38,361.65,612.89,361.65Z"/><path class="8cb76721-28e6-43f0-af9d-6f202e14ea77" d="M697,279.51l-6.76-1.76c1.39-1.08,3.7-2,4-3.28a59.66,59.66,0,0,0,.82-11.14c0-.09-2.27-.13-3.44-.4-.44-.1-.74-.79-1.1-1.21a50.18,50.18,0,0,1,5.92-4.64c.52-.31,2.71.86,3,1.73,2,5.93-3.19,13.53,4.67,18.59C705.06,278,699.68,278,697,279.51Z"/><path class="21ecaa79-601d-49ca-8f4f-5cc24b402291" d="M532.35,114.93,525.61,113c1.41-1.07,3.76-1.93,4.06-3.25A50.33,50.33,0,0,0,530.49,99c0-.31-2.25-.52-3.35-1a3.52,3.52,0,0,1-1.09-1.5A46.71,46.71,0,0,1,532.27,92c.37-.2,2.27,1.3,2.62,2.31,2,5.82-3.28,13.19,4.56,18.28C540.71,113.43,534.94,113.23,532.35,114.93Z"/><path class="21ecaa79-601d-49ca-8f4f-5cc24b402291" d="M448.28,197l-5.15-1.5c1.35-1,3.61-1.77,3.89-3a52.93,52.93,0,0,0,.92-10.8c0-.34-2.18-.61-3.24-1.13a3.65,3.65,0,0,1-1.07-1.48,58.92,58.92,0,0,1,6.47-4.54c.24-.14,2,1.5,2.34,2.55,2,5.68-4.11,13.58,5,17.5C459,195.2,456.78,197,448.28,197Z"/><path class="8cb76721-28e6-43f0-af9d-6f202e14ea77" d="M532.59,156.26c-2.42-.63-6.08-.6-6.67-1.93-1.45-3.29,3.79-1.63,3.8-3.27,0-4,5.2-9.49-2.65-11.83-.48-.14-1.07-1.5-1-1.53a55.83,55.83,0,0,1,6.53-4.49c.28-.15,2,1.48,2.4,2.53,1.94,5.69-3.41,12.82,4.41,18C541,154.74,534.75,154.25,532.59,156.26Z"/><path class="16367982-6d47-4042-8c5e-1e6e4498f31c" d="M573.48,279.82l-7.82-2.31c2-2.74,3.76-5.6,5.9-8.18s6.86-4,4.64-7.9c-2.33-4.08-5.11-.61-7.51,1.14-.43.31-2.15-.24-2.15-.41,0-1.05-.07-2.46.55-3.1,3.64-3.72,8.29-4.42,11.89-.9,4.6,4.51,1,8.38-2.56,11.78-1.54,1.46-2.88,3.12-4.31,4.69a45.37,45.37,0,0,1,5.82.8,12.77,12.77,0,0,1,3.17,1.92Z"/><path class="b4738feb-d7e5-4a41-a513-dc123cca8201" d="M573.62,321.14c-3-.85-7.43-1.2-7.65-2.34-.84-4.51,3.8-6.2,6.37-9,2-2.19,6.27-3.85,3.69-7.53-2.39-3.41-4.89-.58-7.09,1.33-.45.39-1.65-.11-2.51-.2.28-1.24.13-3,.9-3.62,3.87-3.19,8.51-3.87,12-.14,3.92,4.2,1,7.94-2.48,11.11-1.67,1.55-3.22,3.23-4.83,4.85a59.16,59.16,0,0,1,6.25,1c1,.28,1.88,1.23,2.82,1.88Z"/><path class="8cb76721-28e6-43f0-af9d-6f202e14ea77" d="M653.86,237.78l-4.76-1.09c1.33-1,3.58-1.74,3.83-2.93a66.84,66.84,0,0,0,.93-11.43c0-.15-2.23-.22-3.33-.6-.5-.17-.78-1-1.17-1.53a66.55,66.55,0,0,1,6.49-4.43c.29-.16,2.12,1.58,2.54,2.7,2.08,5.55-4.16,13.36,4.86,17.24C664.63,236.29,662.73,237.78,653.86,237.78Z"/><path class="8cb76721-28e6-43f0-af9d-6f202e14ea77" d="M490.89,362.14c-2.05-.56-5.65-.55-6.26-1.9-1.34-3,3.38-1.58,3.69-3.13a64.89,64.89,0,0,0,.85-11.11c0-.23-2.13-.39-3.18-.8-.54-.21-.89-.92-1.32-1.4a66.94,66.94,0,0,1,6.39-4.63c.35-.2,2.27,1.27,2.61,2.26,2,5.77-3.47,13.09,4.46,18.24C499.55,360.6,493.52,360.45,490.89,362.14Z"/><path class="8cb76721-28e6-43f0-af9d-6f202e14ea77" d="M490.68,197.47l-6.4-1.9c1.33-1,3.54-1.74,3.82-3a57.9,57.9,0,0,0,1.1-11c0-.3-2.19-.58-3.27-1.07-.53-.24-.85-.94-1.27-1.43a54.89,54.89,0,0,1,6.13-4.52c.46-.26,2.49,1.05,2.82,2,2.09,5.87-3.46,13.41,4.56,18.54C499.33,195.83,493.46,195.82,490.68,197.47Z"/><path class="21ecaa79-601d-49ca-8f4f-5cc24b402291" d="M326.79,197.55c-2.41-.67-6.15-.68-6.8-2.1-1.36-3,3.68-1.49,3.71-3,.08-4.11,5.52-9.69-2.69-12-.43-.12-1-1.54-.86-1.61a44.38,44.38,0,0,1,6.27-4.35c.39-.21,2.26,1.3,2.61,2.31,2,5.77-3.51,13.12,4.48,18.22C334.92,195.91,329,195.65,326.79,197.55Z"/><path class="8cb76721-28e6-43f0-af9d-6f202e14ea77" d="M532.36,362.26l-6.77-2c1.39-1,3.73-1.89,4-3.18a57.37,57.37,0,0,0,.85-11.14c0-.23-2.14-.39-3.19-.8-.53-.21-.87-.93-1.29-1.42a54.65,54.65,0,0,1,6.07-4.57c.44-.26,2.49,1.06,2.83,2,2.15,5.86-3.42,13.35,4.57,18.58C540.8,360.64,534.68,360.24,532.36,362.26Z"/><path class="21ecaa79-601d-49ca-8f4f-5cc24b402291" d="M367.58,197.45c-2.08-.56-5.72-.55-6.31-1.9-1.37-3.09,3.38-1.5,3.7-3a52,52,0,0,0,1-10.81c0-2.89-2.24-1-3.55-1.25-.43-.07-1.07-1.46-1-1.5a43.13,43.13,0,0,1,6.18-4.43c.38-.2,2.34,1.43,2.73,2.52,2,5.68-3.49,12.94,4.49,17.95C376.2,195.87,370.18,195.74,367.58,197.45Z"/><path class="b4738feb-d7e5-4a41-a513-dc123cca8201" d="M573.35,362.44c-2.79-.85-7-1.11-7.41-2.47-1.07-3.68,2.73-5.6,5.1-7.94s7.47-3.86,5.18-8.19c-2.19-4.13-5.12-.48-7.66.85a3.06,3.06,0,0,1-2.1-.56c.1-1.07.14-2.48.82-3.09,3.84-3.43,8.43-3.95,11.91-.24,4.21,4.48,1,8.26-2.69,11.5-1.63,1.42-3.1,3-4.65,4.53a56.19,56.19,0,0,1,6.22,1.13,12.17,12.17,0,0,1,3,2Z"/><path class="6c3f6662-0b76-44de-989a-3e7422384983" d="M655.73,320.53c-3.25,0-6.25-.78-7.71-4-1.14-2.49.28-3.56,2.59-2.7,1.26.47,2,2.43,3.25,2.77a8.17,8.17,0,0,0,4.73-.56c.59-.23,1.23-2.25.89-2.65a15.54,15.54,0,0,0-3.56-2.57c-1-.63-1.94-1.22-2.91-1.82l2.41-2a18.21,18.21,0,0,0,3.5-3c.27-.37-.95-2.61-1.47-2.61a23.08,23.08,0,0,0-5.13,1.1c-1.33.34-2.66.71-4,1.06.39-1.3.38-3,1.24-3.83,3.33-3.19,7.4-3.26,11.11-1,3.55,2.15,2.75,5.26,1.6,8.91-.79,2.51,1.64,5.94,1.11,8.66C662.68,319.86,659.1,320.55,655.73,320.53Z"/><path class="6c3f6662-0b76-44de-989a-3e7422384983" d="M491.34,155.83c-3.4-.11-6.46-.69-8-3.9-1.12-2.39,0-3.65,2.48-2.79,1.26.44,2,2.37,3.29,2.71a8.36,8.36,0,0,0,4.76-.52c.6-.22,1.26-2.32.95-2.64A21.1,21.1,0,0,0,491,146c-.89-.57-1.76-1.16-2.64-1.75.79-.66,1.56-1.34,2.36-2,1.21-1,2.69-1.77,3.52-3,.28-.43-1-2.77-1.67-2.79-1.61-.06-3.25.68-4.87,1.13-1.26.35-2.51.75-3.77,1.13.38-1.36.32-3.23,1.22-4A8.71,8.71,0,0,1,496,134c3.61,2.29,1,6.22,1.59,8.91C499.07,149.8,501.09,155.24,491.34,155.83Z"/><path class="6c3f6662-0b76-44de-989a-3e7422384983" d="M655.75,279.45c-3.18-.2-6.23-.83-7.71-4.06-1.12-2.44.07-3.63,2.5-2.75,1.27.46,2,2.39,3.29,2.73a8.44,8.44,0,0,0,4.77-.52c.58-.21,1.2-2.3.86-2.65a20.92,20.92,0,0,0-3.87-2.7c-.87-.58-1.73-1.17-2.59-1.76l2.44-2a17.7,17.7,0,0,0,3.48-3c.27-.37-1-2.62-1.47-2.61a21.66,21.66,0,0,0-5.13,1.14c-1.26.35-2.5.79-3.74,1.19.32-1.37.19-3.22,1-4,3.33-3.13,7.35-3.34,11.09-.93,3.5,2.25,1.28,5.83,1.71,8.77C663.4,273,665.9,278.94,655.75,279.45Z"/><path class="16367982-6d47-4042-8c5e-1e6e4498f31c" d="M491,403.23l-7.55-2.53c2.16-2.84,4.18-5.82,6.53-8.49,1.93-2.2,6-3.76,3.77-7.29s-4.85-.93-7.16.86c-.53.41-1.7,0-2.58-.06.19-1.06.07-2.81.63-3.05,2.66-1.19,5.57-2.83,8.24-2.61,2,.17,4.8,2.54,5.59,4.58,1.42,3.65-1.59,6.18-4.08,8.54-1.72,1.64-3.37,3.36-5,5.05,2.2.32,4.42.54,6.58,1a9.24,9.24,0,0,1,2.47,1.46Z"/></g></g></svg>