<svg xmlns="http://www.w3.org/2000/svg" viewBox="0 0 1023.95 575.94"><defs><style>.\32 980302c-370f-4e4b-b661-98765c1bb84a{fill:#fdfdfd;}.d76e75e2-0f72-45de-a1d9-d1585ffe4ad7{fill:#010101;}.\37 fdd835d-8dd7-4622-b81b-631da9df14fa{fill:#0e0e0e;}.\37 f9abb92-3110-43a6-8e8a-3a55cf907b76{fill:#222;}.\36 2e2611e-2d48-419e-b5a1-f3554c678699{fill:#7b7b7b;}.\35 38868e9-991b-4544-a1eb-199d90d87863{fill:#7c7c7c;}.\38 52c3826-369e-45cc-9b9e-931fdeec5cbd{fill:#353535;}.\37 174cb33-9ac3-4215-a3cc-20a36da71883{fill:#373737;}.afcf7168-d81d-45f1-a7cd-91f9feb48e48{fill:#363636;}.\32 9c1ac58-49ac-4cb4-a4cc-7aeca24b1709{fill:#383838;}.c7ee2777-f339-4a3d-98c7-22d21958b3b8{fill:#7a7a7a;}.\31 0238eef-3ffb-4d62-a812-92411c4f608b{fill:#7e7e7e;}.\30 249abb7-88ed-4e5e-9bd4-77f782498a26{fill:#393939;}.e5c2c3dd-34ed-4e22-97d7-7d7ce86e5bca{fill:#3e3e3e;}.\33 e92034f-43bf-40c0-8fcc-36211caaf3ec{fill:#7d7d7d;}.\32 0180f41-b695-40a3-b413-7e7e3e2c5da6{fill:#3a3a3a;}.cb5bd3d1-3057-427f-9694-2319f600fb33{fill:#333;}.a623b444-3bb5-4ffe-a25a-0cb51bbb9990{fill:#3b3b3b;}.\33 8f237a2-b80b-4961-91a2-589b99224cc7{fill:#343434;}.\39 bf21219-e816-45ba-b6e3-a3a1f25b1c31{fill:#3c3c3c;}.\34 f5cab7c-3341-4c51-92ed-1e09d2077f31{fill:#fefefe;}.\30 7db1da6-152e-4d26-a477-38f7e9438240{fill:#d2d2d2;}.a309862a-e73f-4c89-9270-423d42ddc26d{fill:#fcfcfc;}.\31 a610bb6-662a-44ce-9390-936a2550f19e{fill:#fafafa;}.f251cca6-b2a3-46c7-b599-4ebfb1241e17{fill:#f4f4f4;}.f879b64e-650f-49ed-a5e1-6fed89468195{fill:#f9f9f9;}.\38 a2aebda-e029-4f3a-96a5-86618d31efd9{fill:#ececec;}.deb547af-de97-428b-9cfe-b1ba127961de{fill:#f3f3f3;}.c242e140-7060-4e59-a6c8-c95741891933{fill:#f8f8f8;}.\34 3de2a2e-efb0-4d46-8f5c-e05f445ad994{fill:#1d1d1d;}.\38 7e435cc-cdca-4512-8271-1bc6feebd810{fill:#1a1a1a;}.d3a4637f-b7f0-4509-8b96-90f34222441c{fill:#303030;}.\30 72ce86c-a1cc-4bfd-8ff0-561aa4665eda{fill:#232323;}</style></defs><title>portfolio-rn</title><g id="baacfe06-b0f0-40f6-b365-f48c62406cb3" data-name="Layer 2"><g id="f3f83b11-5073-4de8-bc12-9cd82076416e" data-name="Layer 1"><path class="2980302c-370f-4e4b-b661-98765c1bb84a" d="M1024,575.94H0Q0,288,0,0,511.93,0,1024,0Z"/><path class="d76e75e2-0f72-45de-a1d9-d1585ffe4ad7" d="M605.16,546.44c1.35-14.83,11.38-25.08,24.72-25.42,15.05-.39,25,8.82,27.37,25.46H843.46c2.75-16.88,13.89-26.73,28.64-25.41a26.17,26.17,0,0,1-.25,52.16c-14.78,1.09-25.79-8.74-28.37-25.43H657.26c-2.54,16.84-12.51,26-27.63,25.46-13.22-.47-23.18-10.75-24.46-25.42H418.94c-3.65,17.58-12.65,25.87-27.59,25.42-13.21-.4-22.46-9.89-24.7-25.46H180.44c-2.73,16.87-13.89,26.73-28.64,25.41a26.17,26.17,0,0,1,.25-52.16c14.78-1.09,25.78,8.73,28.37,25.43H366.64c2.53-16.83,12.51-26,27.63-25.46,13.22.47,23.17,10.75,24.46,25.42Z"/><path class="d76e75e2-0f72-45de-a1d9-d1585ffe4ad7" d="M663.79,47.35c-8,6.46-13.48,6.48-16.66.31-3.95,2.75-8.06,7.82-11.31-.79-3.69,2.67-7.23,8.6-12,1-3.56,2.75-7.2,8.62-11,.39-20.62,11.58-3.29-11.8-11.12-12.12-2.33,5.22-3.78,11.85-12.14,9.72-2.73,3-5.11,7.56-10.09,5-3.46-1.75-2.49-5.58-1.19-8.36,2.66-5.71,6.15-10.68,14.74-9.32l-2,11.16c10.77.37,7.23-10.18,12-15.34v5c8.46,3,4.09,9.1,2.39,14.78,5,.33,7.09-2.55,9-5.65,3.16-5.13,6.58-10,13.5-9.54,1.33.08,2.86,1.55,3.7,2.79.42.62-.52,2.16-1.08,4.13l.19.32-4.31,11.57c15.24-11.28,12.83-29.43,26-37.9,3,8-1.92,13.49-5.29,19.24C645.1,37,642,39.7,640.25,43c-.91,1.7-1.59,5.14,1.27,6s4.3-2.06,5.67-4.21a4.12,4.12,0,0,0,.26-.75c2.3-6,5.56-11.07,12.75-11.48,1-.05,2.94,1.76,2.89,2.62-.44,7.35-6.6,8.27-11.91,10.1-.8,4.79,3.37,6.69,8.17,3.27a45.05,45.05,0,0,0,8.79-8.49c2.28-2.84,3.77-6.3,5.88-10l4.07,17L683.06,43l.77,1c-3.92,2.76-7.56,6.18-11.86,8.09C668.36,53.71,665,51.7,663.79,47.35Z"/><path d="M681.42,2.91H5.42V2.38h676Z"/><path d="M1018.48,66.37h-676v-.53h676Z"/><path class="7fdd835d-8dd7-4622-b81b-631da9df14fa" d="M667.57,377.07,585,293.91,720,159,854.89,294l-86.3,86.82a.81.81,0,0,1-1-.25c-.61-1.19.07-2,.81-2.83s1.73-1.79,2.61-2.67q38.44-38.48,76.91-76.92c4.18-4.18,4.17-4.47-.05-8.69Q786.12,227.7,724.38,166c-4.3-4.3-4.56-4.29-8.88,0L592,289.48c-4.19,4.19-4.19,4.5,0,8.7q37.24,37.22,74.44,74.49c1.1,1.11,2.93,2,2.13,4.16A.8.8,0,0,1,667.57,377.07Z"/><path class="7f9abb92-3110-43a6-8e8a-3a55cf907b76" d="M768,380.22l.64.59-48.64,48-52.37-51.72.64-.59c1-2.25,1.93-4.58,4.23-5.84,1.75,0,2.3.88,2.13,2.39-.09.79-.14,1.59-.22,2.39a9.58,9.58,0,0,0,3.19,8.33c7.2,7,14.22,14.16,21.32,21.25,3.14,3.13,3.8,3.2,7.59,1,2.14-1.26,4.27-2.54,6.41-3.81a3.52,3.52,0,0,1,3.53-.3c.67.32,1.28.68,1.35,1.5.09,1-.63,1.36-1.38,1.52.78-.06,1.39-.74,2.11-1a7.45,7.45,0,0,1,6,.15c2.22,1.11,4.53,2,6.7,3.26,4.89,2.72,4.9,2.73,8.8-1.17,5.21-5.21,10.37-10.48,15.66-15.61a9.17,9.17,0,0,0,2.74-8.94c-.66-3.67-2.07-7.17-2.31-10.91-.07-1.13-.36-2.3.41-3.3,1.35-.76,2.18.1,2.64,1,1.83,3.75,4.68,6.66,7.57,9.54A11.28,11.28,0,0,1,768,380.22Z"/><path class="d76e75e2-0f72-45de-a1d9-d1585ffe4ad7" d="M520.18,39.28l1.21,1.58-3.1,8.29c6,0,7.28-4.36,10.9-8.17-2.26,5.62-4.6,9.14-9.32,10.36-2.86.74-4.2-1.12-5.08-3.69-3.62,2.78-7.09,8.63-11.26,1-6.48,1.49-7.54,8.1-11.18,12.45-1.85,2.21-4.41,4-6.8,1.53s-.38-5,1.85-6.67c3.85-2.8,9.34-4.13,8.54-10.69-3.16,3.24-6.34,7.28-10.73,1.59-3.81,2.92-7.33,8.42-12,.93-2.68,2-4.83,6.63-9.16,3.53-3.05-2.19-1.55-5.63-.11-8.26,3-5.47,6.77-10.25,14-9.46,2.27.25,3.53,1.91,3.13,4.6l-.46.42L476.95,49.4c9.47-1.23,8.46-9.93,12.71-14.5L492,36,488.83,47.1c8.5.73,6.86-9.07,13.47-11l-3.82,13.77c6-1.52,6.2-7.76,9.65-11.24s7-6.67,12.29-4.5c1,.4,1.64,2.13,1.93,3.37.09.41-1.45,1.2-2.24,1.82-3.59-2.87-5.09-2.69-7.86,1.18-1.29,1.81-2.84,3.62-2.42,6.11,1.5.61,2.14-.41,2.88-1.1,1.75-1.64,3-3.72,4.54-5.54C518.1,39,519,38.5,520.18,39.28Z"/><path class="d76e75e2-0f72-45de-a1d9-d1585ffe4ad7" d="M431.3,14.46c2.66,8.91-2.7,14.81-6.64,21-2.6,4.09-9.58,8.19-4.85,12.72,4.15,4,5.4-4.33,9.41-6.66-2.47,4.94-4.63,9.16-9.91,9.9-3.24.46-4.09-2.18-4.39-4.89-4,2.15-7.85,9.74-12.3.45-2.91,2.81-6.13,8.89-9.69,0-3.74,2.73-7.31,8.36-12,.9-2.93,1.88-6.39,7.94-9.6,2.68-3.68-6,1.81-10.9,6.34-14.66,3.1-2.57,6.94-4.18,10.49-.6,1.49,1.5,1,3.3-.22,3.89L384.8,49.51c8.9-1.53,8.7-9.35,12.44-14l2.35,1c-1.38,4.12-4.28,7.85-2.13,12.87,5.59-2.52,6.63-8.06,9.64-12.52l2.39.86-4.31,14.76C420.48,41.6,417.78,23,431.3,14.46Z"/><path class="d76e75e2-0f72-45de-a1d9-d1585ffe4ad7" d="M558.94,50.25c-3.91-1.54-2.54-5.17-2.73-7.95-.22-3.18.09-6.39.12-9.58s0-6.29,0-10c-6,10.6-8,22.69-18.58,34.71l18.56-40.28c-7.92.31-8.24,5.06-8.41,9.9a3.4,3.4,0,0,1-3-4.08c.65-5,4.33-7.1,8.73-8,2.93-.62,5.61.75,5.74,3.72.35,8.11.12,16.24.12,25.36,5-10.71,9.2-20.91,19.38-32.58C574.64,28.65,571,41,572,54.06c-4.34-.17-4.34-.17-.18-31.51Z"/><path class="d76e75e2-0f72-45de-a1d9-d1585ffe4ad7" d="M355.44,16.91l-6.28,2.47-1.87-1.62c7.43-3.12,14.46-4.51,21.48-.23,3,1.85,4.49,5,3.42,8.27-2.81,8.7-11,7.84-18,9.31a96.24,96.24,0,0,0,14.59,19.74c-9.47-1.29-11.36-10.6-16.61-17.1l-4.7,16.49-3.92-1Z"/><path class="d76e75e2-0f72-45de-a1d9-d1585ffe4ad7" d="M453.13,16.84,447,19.37l-1.93-1.56c7.48-3.35,14.57-4.51,21.56.12,3.14,2.08,4.64,5.29,3.23,8.8-3.5,8.7-11.77,8.08-19.53,9.38l-5.09,18.14c-3.34-.38-4.47-1.89-3.37-5C445.6,38.58,449.27,27.94,453.13,16.84Z"/><path class="62e2611e-2d48-419e-b5a1-f3554c678699" d="M280.79,301.21l-.94,5.4a6.26,6.26,0,0,0,7.41.66c.61-.33,1.05-2.33,1-2.37-1.86-.94-3.81-1.7-5.73-2.52-1.3-.56-2.89-.9-3.74-1.87-.4-.46.64-2.18,1.19-3.79-1.31-1.62-2.69-4-.41-6.51s5-2.12,7.85-.47c1.68-.72,3.68-2.43,5.35,1.25l-4.27-.29c1.73,6.74-3,7.47-8.79,7.8,4.26,3.1,12.71-.23,10.37,8-1,3.72-5.65,3.16-8.9,2.33-1.46-.37-2.7-2.09-3.65-3.47C277.3,305.12,278.85,303.63,280.79,301.21Z"/><path class="62e2611e-2d48-419e-b5a1-f3554c678699" d="M307.93,302.59l2-1.86c-.81-3.61,1.51-7.68-1.95-11.29l3.38-.88,1.35,1.84c3.2-2.25,6.35-3,9.29-.07,15.48-7,7.12,8.86,11.89,12.31h-6.29l1.95-2.07c-1-3.37,1.9-7.68-2.21-10.32-.76-.49-3.74.69-4.1,1.67-1.26,3.49-1.88,7.23.83,10.75H318c2.92-3.93,2.19-8,.54-11.9-.2-.48-3.88-.47-4.46.36-2.51,3.57-2.15,7.46-.12,11.45Z"/><path class="538868e9-991b-4544-a1eb-199d90d87863" d="M209.56,302.67h-5.73c2.23-4.47,2.11-8.72,0-13.35l3-.8,1.17,1.85c3.18-2.11,6.34-3.11,9.33,0,15.4-7.32,7.26,8.63,12,12.19h-6.72l2.23-1.82c-.75-3.53,1.91-7.84-2.24-10.56-.73-.48-3.67.72-4.08,1.74-1.36,3.41-1.81,7.08.69,10.64H213l2.09-1.83c-1-3.49,2-7.9-2.27-10.57-.74-.46-3.81,1-4.16,2C207.55,295.54,206.88,299.16,209.56,302.67Z"/><path class="538868e9-991b-4544-a1eb-199d90d87863" d="M281.88,270.68h-5.53c2.24-4.46,2.11-8.72,0-13.35l3-.8,1.18,1.85c3.17-2.09,6.34-3.11,9.39.06,3.53-1.55,7.32-4.41,9.78,1.13,1.52,3.43-1.27,7.76,2.26,11.11H295l2.33-1.9c-.56-3.53,1.69-7.67-2-10.52-.67-.53-3.72.46-4.18,1.45-1.65,3.53-1.94,7.32.59,11H286a12,12,0,0,0,.16-12.1c-.24-.46-3.89-.13-4.43.77C279.58,262.89,279.73,266.71,281.88,270.68Z"/><path class="852c3826-369e-45cc-9b9e-931fdeec5cbd" d="M445.14,177.05l-13.93-18.7v14.27l2.91,2h-7.88l3.11-2V156.39l-3-2.1,5.58-.26,11.5,15.61V156.37l-2.77-2.07h7.87l-3.39,2.19Z"/><path class="7174cb33-9ac3-4215-a3cc-20a36da71883" d="M276.07,140.95l2.32,1.77h-7l2.07-1.7v-9.87l-2.18-1.63,3.93-.91.78,2.15c3.27-2.44,6.51-3.61,9.58-.24,15.76-7.5,6.55,9.4,12.29,12.15H291l2.24-1.91c-.68-3.51,1.47-7.52-1.77-10.51-.61-.57-2.76-.3-3.61.35-3.66,2.84-1.41,6.89-2,10.39l2.46,1.71h-7.2l2.21-1.73c-.5-3.53,1.5-7.55-1.59-10.72-.56-.57-2.76-.34-3.61.31C274.41,133.37,276.73,137.45,276.07,140.95Z"/><path class="7174cb33-9ac3-4215-a3cc-20a36da71883" d="M189.26,140.87l2.35,1.73h-6.39c2.75-3.86,2.33-8.12.46-11.93-1-2-3.91-1.15-4.92.61-2.1,3.64-1.82,7.5.07,11.34h-5.95l2-1.57v-10l-2.15-1.62,3.82-.86,1,2.1c3.28-2.55,6.53-3.5,9.46-.3,13.63-6,8.81,5.38,10.44,10.79l2.11,1.48h-7.28l2.93-2.22c-.63-3.18-1.25-6.74-2.17-10.2-.07-.25-2.69-.39-3.55.23C187.61,133.23,190,137.35,189.26,140.87Z"/><path class="afcf7168-d81d-45f1-a7cd-91f9feb48e48" d="M290.55,366.7h-7.16l2.56-1.77c-1-3.57,2-8.06-2.3-10.81-.79-.5-4,.95-4.37,2-1.07,3.43-2.08,7.23,1.19,10.54h-6a10.9,10.9,0,0,0,.28-12.2c-1.13-1.89-4-.86-4.9,1-1.71,3.59-2,7.41.5,11.13h-6.07l1.94-1.62v-9.73l-2.1-1.79,3.75-.82.9,2c3.24-2.23,6.49-3.61,9.51-.11C293.88,346.95,285.06,363.69,290.55,366.7Z"/><path class="afcf7168-d81d-45f1-a7cd-91f9feb48e48" d="M256,462.68l2.49-1.84c-.63-3.57,1.44-7.56-1.74-10.58-.6-.57-2.76-.33-3.62.31-3.75,2.81-1.28,6.92-2.13,10.35l2.49,1.75h-7.1l2.6-2c-.44-3.09-.84-6.63-1.61-10.09-.08-.37-2.65-.81-3.52-.29-4.44,2.63-1.81,7-2.58,10.65l2.29,1.78h-7l2.42-1.9c-.94-3.63,1.64-7.82-2.09-11.34l3.45-.8,1,2.09c3.21-2.43,6.44-3.61,9.41-.23,13.44-6.12,9,5,10.38,10.55l2,1.63Z"/><path class="afcf7168-d81d-45f1-a7cd-91f9feb48e48" d="M438.24,130.46c13.56-5.91,8.89,5.3,10.51,10.78l2,1.47h-7.22l2.46-1.91c-1.19-3.54,2.11-8.15-2.51-10.73-.83-.46-4,1.12-4.3,2.24-.91,3.36-2,7.11,1.26,10.35H434l2.54-2.15c-.46-3-.89-6.55-1.69-10-.08-.36-2.64-.74-3.53-.22-4.48,2.63-1.64,7.06-2.65,10.53l2.39,1.87h-7.11l2.27-1.6v-9.93L424,129.5l3.78-.86,1,2.06C432.16,128.19,435.41,127.22,438.24,130.46Z"/><path class="afcf7168-d81d-45f1-a7cd-91f9feb48e48" d="M290.24,397.17l2.14,1.54h-7.26l2.49-1.93c-1.21-3.54,2.12-8.16-2.53-10.72-.84-.46-4,1.14-4.29,2.26-.9,3.36-2,7.12,1.28,10.34h-6.5l2.16-1.89c-.56-3.52,1.42-7.49-1.7-10.52-.59-.58-2.77-.34-3.62.31-3.68,2.82-1.43,6.89-2.05,10.37l2.31,1.77h-7.19l2.3-1.61v-9.94l-2.16-1.65,3.79-.85,1,2.05c3.27-2.38,6.43-3.53,9.42-.2C293.36,380.24,288.87,391.51,290.24,397.17Z"/><path class="afcf7168-d81d-45f1-a7cd-91f9feb48e48" d="M370.07,334.72h-7.12l2.56-1.78c-1.17-3.58,2.23-8.26-2.54-10.89-.81-.45-4,1.22-4.24,2.34-.78,3.29-1.89,7,1.17,10.21h-6.55l2.35-1.64c-.91-3.6,2-8.06-2.25-10.83-.76-.5-4.16,1.1-4.48,2.25-.92,3.28-1.9,7,1.14,10.23h-6.59l2.4-1.64c-.75-3.74,1.68-7.94-2-11.53l3.45-.78,1,2c3.26-2.39,6.42-3.5,9.44-.13C373.38,314.88,364.66,331.61,370.07,334.72Z"/><path class="afcf7168-d81d-45f1-a7cd-91f9feb48e48" d="M241.39,321.3l3.09-.64.92,2c3.35-2.46,6.6-3.52,9.69,0,6.9-4.7,8.31-3.25,10.13,10.39l2.15,1.56h-7.17l2.69-2c-.46-3.12-.87-6.65-1.65-10.1-.08-.37-2.65-.78-3.52-.26-4.4,2.66-1.79,7-2.54,10.66l2.38,1.73h-7.11l2.67-2.07c-.46-3.09-.87-6.62-1.65-10.07-.08-.37-2.64-.78-3.52-.26-4.43,2.63-1.89,7-2.58,10.59l2.28,1.82h-6.27C243.95,330.29,243.68,326,241.39,321.3Z"/><path class="afcf7168-d81d-45f1-a7cd-91f9feb48e48" d="M397.55,192.61l.89,2.07c3.28-2.29,6.54-3.6,9.43-.23,13.3-5.91,9.24,4.84,10.42,10.64l2,1.55h-6.87l2.19-1.82c-1.21-3.51,2.28-8.22-2.6-10.81-.82-.44-3.82,1.11-4.11,2.2-.9,3.38-1.94,7.1,1.1,10.42h-6.32l2.13-1.8c-1-3.51,2-8-2.31-10.74-.78-.49-4,1-4.36,2.1-1,3.37-2,7.1,1.07,10.44h-6.37l2.12-1.68c-.48-3.58,1.42-7.69-1.71-11.52Z"/><path class="538868e9-991b-4544-a1eb-199d90d87863" d="M267.75,417.68l-4.21,1.15v11l3.28-.57c-2.47,1.5-5.28,3.37-6.21-1.2-.59-2.88-.11-6-.11-9.29h-6.68c.74,4-1.84,8.31,2.42,11.82h-6.74c3.47-3.49,1-7.67,2-11.44l-3.36-1.5,3-1.11c.38-4,1-8,6.48-7.68,1.25.07,2.46.88,3.87,2.24-6.4-2.56-8.31-.36-7.34,5.56,3.23.64,6.23.87,8.39-2.85l.93,2.88Z"/><path class="29c1ac58-49ac-4cb4-a4cc-7aeca24b1709" d="M331.79,352.61H337c-6.08,5.93-5.52,16.12-13.58,20.18.6-2.81,4.85-2.31,4.47-7l-6.13-13-2.32,2.43-3-.57c-3.25,2.92-2.4,6.74-2.43,10.43l2.21,1.7h-7.3l2.39-1.62v-9.65L309,353.86l4.16-1,1,2.41c3.7-4.38,8.55-2.09,13.77-3l-2.38,2.25,4,10.08C330.34,359.94,334.15,357.16,331.79,352.61Z"/><path class="7174cb33-9ac3-4215-a3cc-20a36da71883" d="M412.2,302.58c3.45-3.68.81-8,1.93-11.7l-3.8-1.25,3.47-.83c0-4.7,1.31-8.54,7.24-7.78.93.12,1.75,1.05,2,2.66l-5.79-2.06-1.2,7.16c3.71.49,6.91,1.05,9.06-3.11l.62,3.18,4.51.8-4.43,1v11.07l5.47-.41c-4.41,1.81-7.25,3.3-8.11-1.37-.54-2.91-.1-6-.1-9.29h-6.59V301l2.66,1.63Z"/><path class="852c3826-369e-45cc-9b9e-931fdeec5cbd" d="M400.4,281.57l9.13,21.06H402l2.94-2-1.65-5.1H396l-1.7,4.88,2.55,2.16h-5.47Z"/><path class="62e2611e-2d48-419e-b5a1-f3554c678699" d="M419.23,261.76v6.9l4,1.91H412.78l3.09-2V252l-3.22-2.2c6.47,1.17,13.63-2.7,16.07,4C431.46,261.32,424.25,261.07,419.23,261.76Z"/><path class="62e2611e-2d48-419e-b5a1-f3554c678699" d="M350.06,417.76v-6.45l-2.93-1.63,5.57-1.12v19.63l2.38,2.2c-2.07.71-3.73,1.08-4.87-1.12-3.15,2.33-6.27,2.32-8.89-.47a7.07,7.07,0,0,1-.73-9.31C342.83,416.07,346.08,415.65,350.06,417.76Z"/><path class="c7ee2777-f339-4a3d-98c7-22d21958b3b8" d="M431.46,430v5.45l2.75,1.56h-7c2.31-6.36,1.76-12.63.22-19.39,3.38,1,7.85-3.2,12.12.55a7,7,0,0,1,1.63,9C439.18,431.12,435.68,431.67,431.46,430Z"/><path class="538868e9-991b-4544-a1eb-199d90d87863" d="M359.07,263.45c-.86,3.45-1.39,5.53,2.49,7.12h-8l2-1.76V251.44l-2.56-1.65,5.16-1v15l4-6.12L361,256.68h6.5l-6.64,5.75,7.41,8.17h-5.81C363.68,267.28,360.54,266.5,359.07,263.45Z"/><path class="538868e9-991b-4544-a1eb-199d90d87863" d="M513.3,315.42l-3.15-1.6,5.54-1v14.71l4.24-5.91-2-1h6.9l-6.53,5.77,7.53,8.19h-5.91c1.19-3.3-1.81-4.2-3.76-7V333l2.11,1.65h-6.6C514.86,328.43,512.11,321.8,513.3,315.42Z"/><path class="afcf7168-d81d-45f1-a7cd-91f9feb48e48" d="M343.33,451.11l-4.14-.58c1.9,7.19-3.38,7.47-8.86,8.06,4.31,3.11,12.76-.44,10.58,7.86-1,3.8-5.72,3.31-9.09,2.26-1.36-.42-2.45-2.09-3.3-3.42-.17-.26,1.31-1.58,3.65-4.27l-1.7,4.91c1.51,2.78,4.06,2.56,6.43,1.93,1-.26,2.43-1.68,2.41-2.54-.08-2.92-2.85-2.21-4.64-2.84s-3.4-1.34-5.1-2l1.61-3.63c-1.56-1.58-2.86-4-.71-6.49,2.3-2.69,5.14-2.29,7.27-.81a39.61,39.61,0,0,1,4.7-.6C342.69,448.93,342.94,450.09,343.33,451.11Z"/><path class="afcf7168-d81d-45f1-a7cd-91f9feb48e48" d="M322.38,449.57a32.64,32.64,0,0,1,4.52-.69c.28,0,.58,1.12,1.11,2.19l-4.29-.52c2.09,7.26-3.46,7.26-8.51,8.22,3.87,3,12.61-.66,10.18,7.84-1,3.59-5.64,3.18-8.93,2.14-1.38-.43-2.53-2-3.4-3.35-.19-.29,1.25-1.66,5-6.46-3.44,6.86-3.19,8.79-.16,9.1,2.33.24,5.42.8,5.9-2.37s-2.87-2.54-4.78-3.21c-1.65-.58-3.27-1.26-4.91-1.89l1.63-3.73c-1.68-1.59-2.84-3.94-.82-6.41C317.28,447.56,320.21,448.13,322.38,449.57Z"/><path class="afcf7168-d81d-45f1-a7cd-91f9feb48e48" d="M374,353.54a35.09,35.09,0,0,1,4.68-.62c.26,0,.53,1.14,1,2.18l-4.23-.57c2.11,7.32-3.53,7.25-8.51,8.29,3.95,2.9,12.4-.65,10.28,7.61-1,3.83-5.69,3.34-9.07,2.31-1.37-.42-2.49-2.06-3.34-3.39-.18-.28,1.29-1.62,3.68-4.49l-1.73,5.05c1.45,2.82,4,2.57,6.39,2,1-.25,2.46-1.65,2.45-2.51,0-2.93-2.8-2.26-4.59-2.88s-3.42-1.31-5.13-2l1.67-3.66c-1.75-1.66-2.85-4-.8-6.47C369,351.67,371.84,352,374,353.54Z"/><path class="afcf7168-d81d-45f1-a7cd-91f9feb48e48" d="M378.68,225.49a41.18,41.18,0,0,1,4.79-.51c.21,0,.43,1.19.76,2.18l-4.06-.69c2.08,7.28-3.33,7.4-8.49,8.22,3.74,3.18,12.86-.68,10,8.07-1.12,3.49-5.73,3-9,1.93-1.31-.43-2.46-1.95-3.19-3.25-.22-.39,1.22-1.72,3.86-5.2-1.8,5-2.53,7.45.46,7.56,2.73.1,8.77,2.33,5-4.39-.9-1.59-5.19-1.27-7.6-1.76-1.41-2.37-.15-3.36,1.38-4.34-2-2.11-3.27-4.52-1.09-7C373.83,223.62,376.66,224.09,378.68,225.49Z"/><path class="29c1ac58-49ac-4cb4-a4cc-7aeca24b1709" d="M407.23,174.75h-6.49L403,173V155.47l-2.37-1.58,4.9-1.13v9.39c15.58-6.38,6.38,9.46,12,12.49h-6.21c2.58-3.91,2.33-8.17.35-12-1.07-2.05-4-1.11-4.91.66A10.55,10.55,0,0,0,407.23,174.75Z"/><path class="afcf7168-d81d-45f1-a7cd-91f9feb48e48" d="M195.67,172.82l-2.14,5c1.53,2.82,4.07,2.64,6.45,2,1-.26,2.45-1.65,2.44-2.51,0-2.94-2.8-2.25-4.59-2.87s-3.41-1.32-5.12-2l1.64-3.67c-1.76-1.68-2.85-4.05-.78-6.48,2.28-2.68,5.13-2.35,7.95-.36,1.72-1.19,3.54-2.55,5.38,1l-4.56-.39c2,7.17-3.53,7.12-8.37,8.14,3.6,3.12,12.85-.68,9.86,8-1.31,3.8-6.25,2.93-9.76,1.73-1.1-.37-2.06-2-2.42-3.26C191.49,176.7,193,175.67,195.67,172.82Z"/><path class="afcf7168-d81d-45f1-a7cd-91f9feb48e48" d="M351.14,236.2l-2.4,5.59c1.39,2.91,4,2.7,6.33,2.1,1-.26,2.55-1.78,2.52-2.69-.08-2.72-2.74-2.09-4.46-2.71s-3.52-1.42-5.27-2.15l1.73-3.46c-1.7-1.64-2.91-4-.89-6.46,2.34-2.87,5.27-2.31,7.48-.87a32.1,32.1,0,0,1,4.48-.69c.29,0,.59,1.11,1.13,2.19l-4.3-.51c2,7.1-3.21,7.47-8.82,8,4.29,3.2,12.75-.39,10.55,7.94-1,3.73-5.57,3.27-8.84,2.31-1.44-.42-2.6-2.14-3.58-3.49C346.65,241.08,348.14,239.68,351.14,236.2Z"/><path class="afcf7168-d81d-45f1-a7cd-91f9feb48e48" d="M567.92,196.33c-.68,5.11-1.79,10.39-7.87,10.33-5.82-.06-7.54-5.09-7.49-10.1s1.25-10.43,7.63-10.42S567.09,191.64,567.92,196.33Z"/><path class="c7ee2777-f339-4a3d-98c7-22d21958b3b8" d="M480.43,334.56l3.45-2.07V315.9c-3.21-1-6.08-1-7.82,4.39v-6H495.6l.37,7c-2-5.87-4.71-6.5-8.23-5.49v16.71l3.55,2.06Z"/><path class="c7ee2777-f339-4a3d-98c7-22d21958b3b8" d="M239.77,251.85v16.62l3.57,2H232.59l3.4-2v-16.6c-3.22-.86-6.12-1-7.78,4.59v-6.14h19.43l.42,6.46C246,251.5,243.34,250.66,239.77,251.85Z"/><path class="afcf7168-d81d-45f1-a7cd-91f9feb48e48" d="M387.17,469l2.52-1.64V451.23L387.22,450c2.15-.76,3.88-2,5.65,0,3-2.39,6-2,8.36.61a7,7,0,0,1,.78,9.1c-2.28,3.55-5.61,3.94-9.45,1.91v5.88l3.21,1.51Z"/><path class="7174cb33-9ac3-4215-a3cc-20a36da71883" d="M569.53,354v-6.85l-2.89-1.46,5.37-1v19.76l2.88,2.25-4.23.25-1-2c-3,2.7-6.16,2.67-8.82-.05a7.05,7.05,0,0,1-.74-9.51C562.44,352,565.69,351.6,569.53,354Z"/><path class="7174cb33-9ac3-4215-a3cc-20a36da71883" d="M429.81,226V219.2L427,217.71l5.22-1.06v19.66l2.77,2.34h-4.32l-.62-1.78c-3,2.69-6.14,2.77-8.86.08a7,7,0,0,1-1-9.27C422.53,224,425.91,223.59,429.81,226Z"/><path class="7174cb33-9ac3-4215-a3cc-20a36da71883" d="M335.58,173.63v5.87l3.09,1.57h-8.14l2.19-1.77V163.36l-2.45-1.51c2.12-.39,3.82-2,5.5.28,2.86-2.42,5.81-2.23,8.32.32a7.05,7.05,0,0,1,.93,9.3C342.75,175.31,339.39,175.67,335.58,173.63Z"/><path class="afcf7168-d81d-45f1-a7cd-91f9feb48e48" d="M542.7,174.79h-8.21l3.47-1.64c-.57-3.88,1.35-7.85-1.74-10.89-.58-.57-2.76-.34-3.61.3-3.73,2.81-1.32,6.91-2.13,10.33l2.39,1.8h-7.25l2.35-1.57V155.41l-2.43-1.49,4.88-1.14v9.44C546.22,155.51,536.87,171.63,542.7,174.79Z"/><path class="7174cb33-9ac3-4215-a3cc-20a36da71883" d="M181.65,346.87l-1.73-.95,5-1.15v9.43c15.84-6.69,6.44,9.39,12.07,12.47h-6.68l2.1-1.87c-.54-3.5,1.39-7.45-1.64-10.52-.57-.58-2.75-.37-3.6.26-3.74,2.78-1.49,6.86-2.12,10.35l2.24,1.78h-5.62Z"/><path class="538868e9-991b-4544-a1eb-199d90d87863" d="M303.5,256.7h5.37c-2.68,3.19,0,5.79.52,9.73l4.44-10.9,3.92,10.68,2.7-7.41-1.37-2.12h4.18l-6.42,15.17-3.69-10.58-4.32,10.48Z"/><path class="62e2611e-2d48-419e-b5a1-f3554c678699" d="M282.39,431.85l-3.62-10.54-4.35,10.32-5.36-14.87h5.26c-2.66,3,.31,5.47.24,10.37l4.89-11.46,3.95,10.65c.79-3.79,3.8-6.15,1.26-9.64h4.22Z"/><path class="852c3826-369e-45cc-9b9e-931fdeec5cbd" d="M171.57,397.5v6L174.8,405h-8.5l2.42-1.65V387.24l-2.15-1.07c.1-.19.15-.45.24-.45,1.61-.15,3.37-2,4.88.47,3-2.55,6.09-2.32,8.64.53a7,7,0,0,1,.5,9.31C178.54,399.19,175.38,399.76,171.57,397.5Z"/><path class="852c3826-369e-45cc-9b9e-931fdeec5cbd" d="M315.29,385.87c2.38-.39,4.17-2,5.88.27,2.86-2.5,5.77-2.18,8.28.35a7,7,0,0,1,1,9.06c-2.25,3.67-5.64,4.21-9.59,2v5.91l3.24,1.51h-8.36l2.28-1.63V387.25Z"/><path class="7174cb33-9ac3-4215-a3cc-20a36da71883" d="M290.08,460.83l-2.32,4V441.52l3.08-.67v9.38c4-2.58,7.42-2.34,9.8,1.37a7,7,0,0,1-.9,9.28C296.92,463.74,293.71,463.4,290.08,460.83Z"/><path class="852c3826-369e-45cc-9b9e-931fdeec5cbd" d="M492.62,206.58c3.2-3.21,1.57-6.93,1.42-10.32,0-.89-1.86-2.53-2.53-2.38-1.46.34-3.59,1.4-3.86,2.55-.79,3.34-1.85,7,1.24,10.24h-6.34L484.5,205V187.38L482,185.81l5-.93v9.32c15.76-6.8,6.48,9.29,11.9,12.37Z"/><path class="852c3826-369e-45cc-9b9e-931fdeec5cbd" d="M484.87,120.88v9.31c15.76-6.78,6.46,9.31,12,12.45H490l2.38-1.75c-1-3.58,2-8.09-2.36-10.82-.78-.49-3.82.83-4.23,1.92-1.3,3.46-1.91,7.21.83,10.68h-6.19l1.95-1.67V123.37l-2.49-1.57Z"/><path class="852c3826-369e-45cc-9b9e-931fdeec5cbd" d="M434.49,334.75H430.2l-.87-1.75c-4.18,3.09-7.77,2.47-10.18-2a6.89,6.89,0,0,1,1.33-8.59c2.46-2.42,5.32-2.56,8.52-.41v-6.84l-2.66-1.47,5.25-1V332.5Z"/><path class="852c3826-369e-45cc-9b9e-931fdeec5cbd" d="M290.33,187.05l-2.84-1.33,5.44-1V204.5l2.82,2.2-4.13.24-1-2c-3.1,2.72-6.28,2.7-9-.2a7,7,0,0,1-.5-9.53c2.32-3.16,5.51-3.64,9.19-1.21Z"/><path class="538868e9-991b-4544-a1eb-199d90d87863" d="M292.73,420.86c-.67-4.58,2.32-4.82,5.24-4.16a5,5,0,0,1,3,3.31c.46,2.75.14,5.63.14,8.46l2.43,1.48c-2,1.45-3.6,1.21-5-.75-2.53,1.39-6.1,3.45-7.34.06-2.12-5.8,4.75-4.68,7.23-7.79.22-2.06-.27-3.86-3.49-3.42Z"/><path class="10238eef-3ffb-4d62-a812-92411c4f608b" d="M265.56,258.15l-1.84,2.57c-1.34-3.48.51-4.25,3.35-4.25,2.2,0,4.39.36,4.66,2.91a86.52,86.52,0,0,1,.08,9.09l2.41,1.42c-2.12,1.85-3.68.85-5.08-.71-2.5,1.58-6,3.34-7.17.08-2.11-5.81,4.8-4.67,7.21-7.84C269.46,259.25,268.79,257.59,265.56,258.15Z"/><path class="538868e9-991b-4544-a1eb-199d90d87863" d="M273.91,300.51l2.44,1.4c-2.15,1.65-3.76,1.13-5-.78-2.57,1.62-6.07,3.39-7.25.17-2.18-5.94,4.9-4.74,7.23-7.75.14-2.21-.4-4-3.58-3.5l-2,2.68c-1.25-3.69.82-4.31,3.67-4.27,2.26,0,4.23.67,4.43,3.2C274.09,294.64,273.91,297.65,273.91,300.51Z"/><path class="852c3826-369e-45cc-9b9e-931fdeec5cbd" d="M569.34,161.94v-6.82l-2.83-1.4,5.33-1.05v19.8l2.84,2.25-4.32.21-.67-2c-4.38,3.18-8,2.49-10.37-2.17a6.88,6.88,0,0,1,1.22-8.18C563.08,159.9,566.09,159.9,569.34,161.94Z"/><path class="538868e9-991b-4544-a1eb-199d90d87863" d="M244,302.05c-2.08,1.33-3.68,1.1-4.85-.94-2.64,1.56-6.18,3.52-7.41,0-2-5.61,4.68-4.58,7.17-7.68.42-2.08-.24-3.71-3.3-3.46l-2.37,2.82c.26-4.61,3.4-5.35,6.41-3.76C244.74,291.79,238.67,298.78,244,302.05Z"/><path class="852c3826-369e-45cc-9b9e-931fdeec5cbd" d="M315.12,173.45l-.32-5.9c2,4.52,4.3,7,8.31,5.72,1.09-.34,2.55-1.82,2.58-2.82.11-4.14-3.89-4.24-6.39-5.74s-4.28-3.21-3.56-6.17c1.61-6.65,6.66-4.17,11-3.59v4.82c-1.68-3.09-3.34-5.53-6.71-4.39a3.45,3.45,0,0,0-2,2.46c0,3.61,3.36,3.91,5.64,5.16,3.39,1.86,6.4,4.06,4.19,8.3-2.13,4.07-5.91,4.3-9.93,2.75A19.11,19.11,0,0,0,315.12,173.45Z"/><path class="29c1ac58-49ac-4cb4-a4cc-7aeca24b1709" d="M553.09,133.56c1.95-4.88,4.53-5.55,7.46-4.89a4.93,4.93,0,0,1,3.22,3.09c.47,2.93.15,6,.15,9.08l2.85,1.22-3.44,1c-.78-.83-1.37-1.46-2-2.08-2.34,1.74-5.82,3.61-7.06.42-2.34-6,4.89-4.68,7.43-8.18-.4-.73-.75-2.39-1.76-3C557.24,128.36,557.13,132.17,553.09,133.56Z"/><path class="0249abb7-88ed-4e5e-9bd4-77f782498a26" d="M509,140.92l2.69,1c-.68.34-1.17.83-1.56.75-1.24-.24-2.43-.69-4.31-1.26-1.61,1.07-5.16,3.25-6.44-.11-2.29-6,4.88-4.71,7.51-8.07-.47-.83-.84-2.49-1.86-3.13-2.64-1.65-2.84,1.73-6.81,4.09,1.74-5.36,4.14-6.15,6.94-5.6,1.41.27,3.45,1.73,3.66,2.92C509.32,134.54,509,137.7,509,140.92Z"/><path class="7174cb33-9ac3-4215-a3cc-20a36da71883" d="M168.89,356.9l-4.3,10.56-5.27-14.71h5.52l-1.88,1.7,2.21,8.08,4.38-10.68,4,10.65,2.84-7.9-1.77-2h4.3l-6.31,15Z"/><path class="0249abb7-88ed-4e5e-9bd4-77f782498a26" d="M513.59,206.28l-3.09.7-1.92-2c-2.34,1.72-5.82,3.61-7.07.43-2.35-6,4.8-4.75,7.44-8.11-.43-.8-.76-2.47-1.76-3.13-2.73-1.8-2.87,2-5.73,3.06.88-5.53,4.46-5.43,7.26-4.27C514.59,195.37,508.17,202.82,513.59,206.28Z"/><path class="0249abb7-88ed-4e5e-9bd4-77f782498a26" d="M463.63,389.07c-.42-.74-.79-2.3-1.76-2.93-2.75-1.77-2.88,2-5.74,3.08.88-5.53,4.45-5.44,7.26-4.29,5.91,2.42-.63,9.9,4.84,13.23l-3,.87-2-2.08c-2.34,1.72-5.82,3.61-7.06.43C453.8,391.32,461.05,392.7,463.63,389.07Z"/><path class="0249abb7-88ed-4e5e-9bd4-77f782498a26" d="M275,230.06c2.64-5.8,5.67-6.39,8.65-5.16,5.9,2.44-.45,9.85,4.79,13.3l-3,.8-1.82-2.06c-2.43,1.68-6,3.73-7.21.28-2.07-5.77,4.78-4.65,7.53-7.86-.41-.82-.71-2.52-1.69-3.18C279.46,224.35,279.24,228,275,230.06Z"/><path class="0249abb7-88ed-4e5e-9bd4-77f782498a26" d="M471.47,238.27l-3.1.71-1.92-2c-2.34,1.71-5.82,3.61-7.07.44-2.37-6,4.79-4.75,7.43-8.11-.42-.8-.74-2.47-1.74-3.13-2.73-1.8-2.89,1.94-5.75,3.1.88-5.55,4.45-5.47,7.25-4.31C472.46,227.35,466.06,234.79,471.47,238.27Z"/><path class="29c1ac58-49ac-4cb4-a4cc-7aeca24b1709" d="M528.31,356.86c-2.2-2.88.82-5.29,5.23-4.2,1.25.31,3,1.79,3.12,2.92a64.68,64.68,0,0,1,.15,9.2l2.54,1.21c-2.13,1.29-3.78,1.33-4.88-1.15-2.51,1.7-6,3.86-7.32.43-2.21-5.85,4.76-4.62,7.38-8-.31-.67-.56-2.39-1.53-3.05C530.3,352.36,530,355.84,528.31,356.86Z"/><path class="852c3826-369e-45cc-9b9e-931fdeec5cbd" d="M169,192.88c10.58.1,14.65,3.29,8,12.72-2.49,3.52-6.54-.65-10.19.28V187.66l-2.49-1.83,4.72-.94Z"/><path class="29c1ac58-49ac-4cb4-a4cc-7aeca24b1709" d="M457.31,165.11c-.44-.75-.86-2.38-1.88-3-2.65-1.62-2.76,1.88-6.69,3.8,1.69-5.07,4.14-5.83,6.95-5.28,1.4.28,3.41,1.76,3.62,3,.52,3,.17,6.15.17,9.19l2.44,1.16c-2.08,1.54-3.64,1.13-4.86-1.05-2.44,1.64-6,3.8-7.25.38C447.61,167.42,454.57,168.66,457.31,165.11Z"/><path class="29c1ac58-49ac-4cb4-a4cc-7aeca24b1709" d="M295.37,174.08c-2.06,1.54-3.58.77-4.76-1.2-2.42,1.77-5.89,3.68-7.14.5-2.35-6,4.79-4.75,7.44-8.1-.43-.82-.77-2.48-1.77-3.13-2.74-1.79-2.87,2-5.72,3.05.86-5.52,4.45-5.41,7.26-4.26C296.59,163.36,290,170.86,295.37,174.08Z"/><path class="29c1ac58-49ac-4cb4-a4cc-7aeca24b1709" d="M541.11,229.23c-.5-.86-.91-2.5-1.93-3.12-2.59-1.55-2.85,1.72-7,4.66,2-5.94,4.42-6.7,7.22-6.15,1.41.28,3.42,1.75,3.63,3,.52,3,.17,6.15.17,9.2l2.45,1.17c-2.07,1.53-3.63,1.15-4.85-1.05-2.44,1.63-6,3.8-7.26.38C531.36,231.46,538.23,232.59,541.11,229.23Z"/><path class="29c1ac58-49ac-4cb4-a4cc-7aeca24b1709" d="M479.38,293.75c2.76-5.46,5.82-6.11,8.85-4.81,5.85,2.5-.76,10,4.63,13.13-1.87,1.38-3.43,1.15-4.62-1.22-2.39,1.63-5.94,3.86-7.25.53-2.34-6,4.78-4.78,7.47-8.08-.46-.84-.81-2.49-1.82-3.15C483.92,288.35,483.79,292.15,479.38,293.75Z"/><path class="29c1ac58-49ac-4cb4-a4cc-7aeca24b1709" d="M223.24,142.28,220,143c-.68-.79-1.23-1.42-1.8-2.05-2.34,1.73-5.82,3.67-7.07.5-2.38-6,4.73-4.8,7.43-8.11-.43-.81-.76-2.48-1.76-3.14-2.72-1.81-2.9,1.91-5.79,3.14,1-5.58,4.51-5.51,7.29-4.36C224.19,131.37,217.7,138.84,223.24,142.28Z"/><path class="29c1ac58-49ac-4cb4-a4cc-7aeca24b1709" d="M413.91,453.23c-.58-.93-1-2.53-2.09-3.15-2.65-1.58-2.69,2-8.85,4.46,4.73-6,7.46-6.92,10.52-5.64,5.94,2.48-.62,9.93,4.85,13.27l-3,.87-1.85-2.13c-2.41,1.72-6,3.76-7.21.32C404.16,455.5,411,456.52,413.91,453.23Z"/><path class="29c1ac58-49ac-4cb4-a4cc-7aeca24b1709" d="M557.08,174.3l-3.28.64c-.68-.83-1.16-1.42-1.66-2-2.41,1.7-6,3.79-7.23.36-2.14-5.78,4.76-4.66,7.47-8-.36-.73-.65-2.43-1.64-3.08-2.68-1.79-3.06,1.59-5.69,3.62.68-6.2,4.36-6,7.06-4.9C558.07,163.29,551.64,170.76,557.08,174.3Z"/><path class="7174cb33-9ac3-4215-a3cc-20a36da71883" d="M209,229.11c-.08-1.24-.52-2.42-.13-2.88a5.62,5.62,0,0,1,7-1.27c5.4,2.77-.65,9.8,4.5,13.27l-2.94.77c-.75-.84-1.31-1.47-1.89-2.1-2.32,1.76-5.8,3.66-7,.49-2.36-6,4.73-4.79,7.43-8.09-.41-.8-.74-2.46-1.73-3.13C211.53,224.34,211.33,228,209,229.11Z"/><path class="7174cb33-9ac3-4215-a3cc-20a36da71883" d="M507.87,389.15c-.59-.9-1.08-2.48-2.14-3.09-2.61-1.49-2.7,2-4.93,1.62,1-3.15,3.8-4.17,6.89-2.68,5.48,2.65-.82,9.84,4.44,13.12-1.89,1.2-3.49,1.2-4.58-1.32-2.45,1.71-6,3.89-7.28.56C497.95,391.39,505.05,392.6,507.87,389.15Z"/><path class="7174cb33-9ac3-4215-a3cc-20a36da71883" d="M357,165.3c-.59-1-1-2.54-2-3.17-2.75-1.77-2.86,2-5.19,1.51,1.05-3.13,3.88-4.15,7-2.63,5.4,2.67-.8,9.83,4.53,13.23l-3.12.74-1.69-2.06c-2.61,1.57-6.32,4.11-7.48-.29C347.71,167.6,354,168.34,357,165.3Z"/><path class="7174cb33-9ac3-4215-a3cc-20a36da71883" d="M206.58,428.89c-2.39,1.74-5.93,3.78-7.18.34-2.1-5.75,4.7-4.7,7.57-7.91-.49-.85-.89-2.57-1.95-3.22-2.64-1.63-2.75,1.87-6.64,3.8,1.54-4.93,3.84-5.79,6.63-5.3,1.45.25,3.63,1.59,3.83,2.72.53,3.08.18,6.31.18,9.38l2.77,1.5-3.39.78Z"/><path class="7174cb33-9ac3-4215-a3cc-20a36da71883" d="M173.5,421.3c-.58-1-1-2.53-2-3.16-2.75-1.77-2.87,2-5.19,1.5,1-3.12,3.87-4.14,7-2.63,5.44,2.66-.86,9.85,4.6,13.22l-3.18.76L173,428.92c-2.61,1.57-6.31,4.1-7.48-.28C164.23,423.6,170.54,424.34,173.5,421.3Z"/><path class="538868e9-991b-4544-a1eb-199d90d87863" d="M249.06,288.52l.94,1.57c15.22-6.23,6.56,9.12,11.67,12.51h-6.09c2.59-3.71,1.88-7.71.6-11.58-.2-.59-2.61-1.18-3.43-.73-4.55,2.52-2,6.91-2.67,10.47l2.07,1.92h-6.71l2.27-2.09-.84-11.47Z"/><path class="538868e9-991b-4544-a1eb-199d90d87863" d="M356.88,302.74h-5.77c2.27-4.44,2.11-8.76,0-13.42l2.81-.75,1.19,1.48c15.22-6,6.37,9.33,11.75,12.6h-6.79l2.16-1.92c-1-3.47,2-7.87-2.31-10.52-.74-.45-3.65.83-4,1.86C354.74,295.47,354.07,299.14,356.88,302.74Z"/><path class="62e2611e-2d48-419e-b5a1-f3554c678699" d="M359,422.33c1.26,2.69,1.71,4.89,3,6.2,2,2,4.41.74,7.78-1.79-2.77,4.24-5.39,4.68-8.15,3.82-4.23-1.32-5.46-4.66-4.52-8.67,1-4.25,4.15-5.91,8.26-5.27,2.79.43,4.19,2.37,3.69,5.71Z"/><path class="0249abb7-88ed-4e5e-9bd4-77f782498a26" d="M369.51,174.7h-7l2.28-1.66v-9.91l-2.06-1.65,3.7-.86.71,1.7c15.36-6.7,6.47,9.24,11.86,12.29H372.3l2.81-2.07c-.63-3.25-1.24-6.81-2.15-10.28-.07-.27-2.53-.46-3.35.09-3.93,2.66-1.71,6.79-2.34,10.42Z"/><path class="29c1ac58-49ac-4cb4-a4cc-7aeca24b1709" d="M447.42,398.71c3.13-3.65,1.77-7.53,1.2-11.17-.11-.7-2.44-1.83-3.29-1.51-5.67,2.13-2.47,7.07-3.43,10.8l2.3,1.8h-6.46c3.74-3.39.92-7.63,2-11.3l-2.26-1.8,3.5-.88.95,1.64c13.4-5.73,8.44,5.46,10.18,11l1.73,1.43Z"/><path class="29c1ac58-49ac-4cb4-a4cc-7aeca24b1709" d="M518.52,430.77h-7l2.59-2.17c-.44-3-.83-6.59-1.6-10-.08-.37-2.66-.81-3.52-.28-4.37,2.68-1.72,7.06-2.58,10.59l2.39,1.82H502l2.11-1.82c-.68-3.64,1.49-7.76-1.84-11.4l3.25-.85.84,1.68C521.74,411.77,512.83,427.62,518.52,430.77Z"/><path class="538868e9-991b-4544-a1eb-199d90d87863" d="M456.73,422.38h-10c1.06,2.49,1.43,4.67,2.69,6,2.06,2.24,4.5.71,7.64-1.13-2.53,3.71-5.16,4.15-7.94,3.25-4.08-1.32-5.29-4.56-4.46-8.48.87-4.13,3.81-5.9,7.86-5.5C455.5,416.85,457,418.74,456.73,422.38Z"/><path class="62e2611e-2d48-419e-b5a1-f3554c678699" d="M350.27,297.73c-4.78,5.49-7.77,6-10.87,4.31-3.65-1.95-4.23-5.39-3-9s4.36-5.09,8.09-4.41c2.72.5,4,2.37,3.57,5.67h-9.84c1.07,2.59,1.41,4.8,2.67,6.13C343,302.62,345.44,301.26,350.27,297.73Z"/><path class="62e2611e-2d48-419e-b5a1-f3554c678699" d="M305.46,294.37h-9.82c1,2.49,1.32,4.7,2.56,6,2.09,2.27,4.53.7,7.68-1.19-2.48,3.72-5.1,4.19-7.88,3.33-4.29-1.32-5.42-4.75-4.51-8.71s4-5.81,8-5.27C304.41,289,305.8,290.84,305.46,294.37Z"/><path class="62e2611e-2d48-419e-b5a1-f3554c678699" d="M389,422.35c1,2.48,1.23,4.62,2.41,6,2.12,2.42,4.63.75,8.38-1.29-3.35,3.93-6.06,4.53-9.06,3.31-4-1.64-4.86-5.09-3.81-8.85,1.14-4,4.3-5.59,8.3-4.84,2.68.51,4.06,2.36,3.43,5.7Z"/><path class="62e2611e-2d48-419e-b5a1-f3554c678699" d="M480.26,262.33h-9.84c1,2.48,1.33,4.69,2.58,6,2.08,2.24,4.54,1,9-2.52-3.67,4.87-6.12,5.56-8.82,4.83-4.45-1.21-5.71-4.63-4.84-8.74s3.91-5.86,8-5.36C479.26,256.94,480.74,258.85,480.26,262.33Z"/><path class="62e2611e-2d48-419e-b5a1-f3554c678699" d="M259,262.31h-9.91c1,2.48,1.31,4.67,2.54,6,2.09,2.31,4.53.88,7.63-1.19-2.13,3.65-4.62,4.13-7.16,3.57-4.49-1-5.93-4.32-5.17-8.5s3.8-6.11,8-5.65C258,256.9,259.3,258.89,259,262.31Z"/><path class="62e2611e-2d48-419e-b5a1-f3554c678699" d="M332.08,425.65c-5.74,5.69-8.91,6.14-12.07,4s-3.52-5.65-2.16-9,4.38-4.61,7.85-4c2.7.48,4.05,2.33,3.68,5.56h-9.64c.7,2.31.81,4.34,1.82,5.69C323.7,430.75,326.46,429.35,332.08,425.65Z"/><path class="7174cb33-9ac3-4215-a3cc-20a36da71883" d="M190.12,174.72h-6.19a11.05,11.05,0,0,0,.33-12.19c-1-1.82-3.79-1-4.74.76a10.93,10.93,0,0,0,.21,11.33h-6L176,173c-.53-3.69,1.42-7.82-1.74-11.55l3.17-.8.85,1.7C193.74,155.5,184.63,171.6,190.12,174.72Z"/><path class="7174cb33-9ac3-4215-a3cc-20a36da71883" d="M222,174.73h-6.22l2.26-1.78c-.6-3.63,1.59-7.79-1.82-11.49l3.23-.83.91,1.65c15.27-6.32,6.43,9.32,11.79,12.4h-6.1a10.92,10.92,0,0,0,.32-12.13c-1.1-1.92-4-.95-4.88.92A10.83,10.83,0,0,0,222,174.73Z"/><path class="7174cb33-9ac3-4215-a3cc-20a36da71883" d="M542.79,355.15l-2.11-1.65,3.72-.86.77,1.7c15.27-6.68,6.51,9.15,11.81,12.29h-6.55l2.4-2c-.36-3-.64-6.5-1.35-9.89-.09-.44-2.82-1-3.68-.49-4.29,2.66-2.05,7-2.49,10.69l2.31,1.7h-7.08l2.26-1.65Z"/><path class="29c1ac58-49ac-4cb4-a4cc-7aeca24b1709" d="M298.06,333.37l1.76,1.28h-6.35c3.09-3.71,2-7.83.72-11.82-.19-.57-2.56-1.11-3.43-.68-4.9,2.45-2,7-3,10.64l2.37,1.82H284c2.65-4.3,2.11-8.59.1-13.29l2.92-.7.78,1.68C301.27,316.4,296.27,327.66,298.06,333.37Z"/><path class="afcf7168-d81d-45f1-a7cd-91f9feb48e48" d="M227.62,358.28c1.33,2.74,1.85,5,3.24,6.39,2.05,2,4.41.69,6.56-.52a5.71,5.71,0,0,1-7,2.33c-4.13-1.43-5.19-4.66-4.36-8.54s3.62-5.65,7.44-5.39c3.15.21,4.7,2.17,4.45,5.73Z"/><path class="afcf7168-d81d-45f1-a7cd-91f9feb48e48" d="M273.11,230.36H263c1.17,2.55,1.65,4.86,3,6.3,2.05,2.13,4.4.57,7.59-1.55-2.61,3.6-5,4.27-7.76,3.45-4.17-1.23-5.41-4.4-4.7-8.34s3.52-5.91,7.48-5.68C271.79,224.75,273.34,226.7,273.11,230.36Z"/><path class="afcf7168-d81d-45f1-a7cd-91f9feb48e48" d="M345.61,134.4h-10c1.08,2.46,1.5,4.72,2.82,6.15,2.1,2.27,4.51.68,8.42-1.79-3.54,4-6.05,4.76-9,3.61-3.94-1.52-4.9-4.74-4.05-8.48.9-4,3.81-5.73,7.74-5.31C344.52,128.92,345.93,130.92,345.61,134.4Z"/><path class="afcf7168-d81d-45f1-a7cd-91f9feb48e48" d="M196,202.64c-4,4.47-6.94,5.06-10.08,3.31-3.51-2-4.06-5.3-2.91-8.8s4.12-5.09,7.77-4.54c2.87.43,4.19,2.41,3.87,5.68h-10c1.1,2.54,1.51,4.8,2.83,6.23C189.56,206.82,192,205.26,196,202.64Z"/><path class="7174cb33-9ac3-4215-a3cc-20a36da71883" d="M214,195l-2.19-1.54,3.8-.86.69,1.6c13.3-5.48,8.59,5.43,10.19,11l1.77,1.47h-6.32c3.21-3.66,2-7.76.89-11.69-.16-.59-2.5-1.28-3.35-.88-5.16,2.38-2.24,7.09-3.07,10.78l2.31,1.77h-7L214,205Z"/><path class="7174cb33-9ac3-4215-a3cc-20a36da71883" d="M515.59,193.3l2.92-.65.79,1.68c13.46-6,8.42,5.33,10.25,11l1.61,1.35h-6.39c3.48-3.33,1.77-7.25,1.41-10.88-.08-.76-2.06-2.13-2.61-1.9-1.48.62-3.59,1.82-3.76,3-.45,3.15-1.72,6.73,1.45,9.7h-5.76C518.16,202.34,517.59,198.05,515.59,193.3Z"/><path class="afcf7168-d81d-45f1-a7cd-91f9feb48e48" d="M552.91,395.7a6,6,0,0,1-8.22,2.48c-3.69-1.93-4.43-5.25-3.29-8.89s4.16-5.28,7.94-4.64c2.85.48,4.11,2.48,3.71,5.66h-9.82c.88,2.37,1.15,4.55,2.33,6C547.71,398.88,550.29,397.29,552.91,395.7Z"/><path class="7174cb33-9ac3-4215-a3cc-20a36da71883" d="M514.88,131.19l-2.18-1.71,3.72-.83.68,1.59c13.29-5.39,8.61,5.48,10.19,11l1.83,1.48h-6.39c3.21-3.71,2-7.8.89-11.73-.17-.59-2.51-1.25-3.36-.85-5.13,2.41-2.22,7.1-3,10.78l2.31,1.77H513C516.72,139.18,514.19,135,514.88,131.19Z"/><path class="7174cb33-9ac3-4215-a3cc-20a36da71883" d="M346.49,366.69l2.41-1.55v-9.92l-2-1.76,3.62-.81.73,1.7c15.38-6.75,6.38,9.32,11.89,12.25h-6.26c3.21-3.55,1.86-7.6.93-11.45-.15-.62-2.63-1.42-3.5-1-5.13,2.42-2.06,7.15-3.06,10.73l2.47,1.82Z"/><path class="7174cb33-9ac3-4215-a3cc-20a36da71883" d="M483.62,461.35l1.83,1.32H479c3.22-3.64,2-7.74.9-11.66-.17-.6-2.7-1.29-3.57-.84-4.81,2.47-2.09,7-2.85,10.7l2.31,1.75h-6.12c2.55-4.35,2.09-8.63,0-13.31l2.95-.68.72,1.63C486.72,444.63,481.93,455.65,483.62,461.35Z"/><path class="afcf7168-d81d-45f1-a7cd-91f9feb48e48" d="M533.53,426.55c-3.77,4.52-6.62,5.08-9.67,3.59-3.61-1.77-4.34-5.06-3.34-8.63s3.84-5.29,7.53-4.94c3,.29,4.48,2.23,4.27,5.66H522.19c1.18,2.64,1.63,5,3,6.4C527.24,430.77,529.6,429.3,533.53,426.55Z"/><path class="afcf7168-d81d-45f1-a7cd-91f9feb48e48" d="M311.63,134.35H301.49c1.13,2.53,1.58,4.8,2.91,6.23,2.09,2.25,4.5.61,8.46-1.8-3.73,4.08-6.37,4.8-9.39,3.49-3.87-1.69-4.62-5-3.67-8.7,1-3.83,3.94-5.44,7.72-5C310.54,129,311.84,131,311.63,134.35Z"/><path class="afcf7168-d81d-45f1-a7cd-91f9feb48e48" d="M356.36,454.36H346.28c1.13,2.53,1.58,4.79,2.92,6.23,2.09,2.25,4.5.6,8.35-1.72-3.62,4-6.28,4.73-9.28,3.41-4-1.76-4.66-5.22-3.58-9s4-5.2,7.65-4.72C355.31,449,356.72,451,356.36,454.36Z"/><path class="afcf7168-d81d-45f1-a7cd-91f9feb48e48" d="M541.45,392.79c-6,6.41-9.08,7-12.24,5-3.4-2.12-3.76-5.52-2.48-9s4.2-4.79,7.72-4.19c2.85.49,4.13,2.47,3.78,5.71H528.16c1.12,2.53,1.56,4.81,2.9,6.23C533.13,398.75,535.58,397.41,541.45,392.79Z"/><path class="afcf7168-d81d-45f1-a7cd-91f9feb48e48" d="M463.09,198.35H453c1.16,2.54,1.63,4.86,3,6.3,2,2.13,4.4.61,7.6-1.57-2.62,3.65-5,4.28-7.76,3.48-4.21-1.21-5.38-4.44-4.69-8.35s3.53-5.91,7.48-5.67C461.74,192.75,463.29,194.72,463.09,198.35Z"/><path class="afcf7168-d81d-45f1-a7cd-91f9feb48e48" d="M376.31,390.29c.5,6.83,3.05,9.16,9.17,5.53a6,6,0,0,1-8,2.45c-3.81-1.79-4.54-5.11-3.57-8.77s3.84-5.3,7.52-4.93c3,.29,4.47,2.24,4.29,5.73Z"/><path class="afcf7168-d81d-45f1-a7cd-91f9feb48e48" d="M212.13,201.17c-5.1,5.7-7.78,6.42-10.79,5.11-3.83-1.67-4.65-5-3.68-8.66s3.9-5.44,7.68-5c3,.33,4.36,2.37,4.17,5.71H199.32c1.19,2.61,1.65,4.94,3,6.36C204.41,206.73,206.77,205.39,212.13,201.17Z"/><path class="afcf7168-d81d-45f1-a7cd-91f9feb48e48" d="M368.89,134.29h-10c1.06,2.5,1.46,4.84,2.81,6.28,2.09,2.23,4.52.75,8-1.75-2.92,3.95-5.38,4.6-8.25,3.67-4.18-1.35-5.23-4.65-4.42-8.48.86-4.1,3.85-5.9,7.9-5.4C367.92,129,369.27,131,368.89,134.29Z"/><path class="afcf7168-d81d-45f1-a7cd-91f9feb48e48" d="M405.17,326.28c1.48,2.82,2.1,5.12,3.58,6.54,2,1.94,4.26.33,9.26-2.89-4.62,4.55-6.86,5.53-9.69,4.65-4.33-1.34-5.42-4.66-4.61-8.64s3.63-5.65,7.44-5.38c3.13.22,4.68,2.19,4.46,5.73Z"/><path class="afcf7168-d81d-45f1-a7cd-91f9feb48e48" d="M280.94,326.31H271c1,2.43,1.3,4.7,2.58,6.12,2.14,2.38,4.63,1,8.28-1.67-3.14,4.09-5.69,4.73-8.64,3.64-4.09-1.52-5-4.86-4.07-8.67s3.94-5.62,7.85-5.12C280,321,281.2,323.09,280.94,326.31Z"/><path class="7174cb33-9ac3-4215-a3cc-20a36da71883" d="M238.34,326.32H228.28c1,2.43,1.32,4.7,2.6,6.12,2.14,2.38,4.63.91,8.19-1.6-3,3.93-5.45,4.6-8.34,3.64-4.17-1.38-5.16-4.68-4.37-8.51s3.6-5.64,7.42-5.42C236.95,320.73,238.43,322.72,238.34,326.32Z"/><path class="afcf7168-d81d-45f1-a7cd-91f9feb48e48" d="M205.22,230.36H195c1.23,2.6,1.73,4.95,3.16,6.34,2,2,4.43.73,8.17-2.57-3.16,4.59-5.58,5.24-8.34,4.46-4.33-1.23-5.51-4.55-4.72-8.54s3.68-5.81,7.61-5.48C204.06,224.83,205.45,226.9,205.22,230.36Z"/><path class="afcf7168-d81d-45f1-a7cd-91f9feb48e48" d="M511.05,230.33H501c1.11,2.53,1.53,4.8,2.85,6.23,2.09,2.26,4.51.69,8.65-1.95-3.78,4.14-6.29,4.92-9.25,3.77-4.11-1.6-4.9-5-4-8.76s3.9-5.47,7.69-5C509.94,224.94,511.36,226.94,511.05,230.33Z"/><path class="afcf7168-d81d-45f1-a7cd-91f9feb48e48" d="M443.57,294.28h-10c1.05,2.5,1.43,4.84,2.78,6.28,2.1,2.24,4.53.78,7.86-1.67-2.67,3.83-5.09,4.48-7.86,3.69-4.33-1.24-5.5-4.57-4.69-8.55s3.69-5.81,7.63-5.46C442.45,288.85,443.92,290.86,443.57,294.28Z"/><path class="afcf7168-d81d-45f1-a7cd-91f9feb48e48" d="M255.84,390.34H245.69c1.22,2.6,1.71,4.95,3.13,6.35,2,2,4.43.77,8.14-2.54-3.11,4.59-5.52,5.2-8.27,4.45-4.2-1.15-5.46-4.36-4.8-8.27.7-4.12,3.58-6.08,7.65-5.76C254.68,384.82,256.16,386.83,255.84,390.34Z"/><path class="afcf7168-d81d-45f1-a7cd-91f9feb48e48" d="M171.36,166.34H161.24c1.14,2.54,1.6,4.86,3,6.3,2,2.14,4.4.66,3.47,1.31,1.16-.26-1.22,1-3.32.6-4.38-.77-5.69-4.24-5-8.31s3.51-5.92,7.46-5.69C170,160.73,171.54,162.7,171.36,166.34Z"/><path class="afcf7168-d81d-45f1-a7cd-91f9feb48e48" d="M246.31,166.36H236.24c1,2.44,1.4,4.71,2.69,6.13,2.13,2.35,4.61.79,9.08-2.18-4.18,4.51-6.82,5.29-9.85,4-3.84-1.66-4.66-5-3.71-8.65s3.88-5.46,7.66-5.06C245.14,160.89,246.48,162.92,246.31,166.36Z"/><path class="afcf7168-d81d-45f1-a7cd-91f9feb48e48" d="M261.19,166.32H251c1.21,2.6,1.68,4.94,3.09,6.36,2.05,2.07,4.41.67,3.7,1.21.94-.22-1.42,1-3.52.68-4.39-.71-5.77-4.16-5.1-8.21s3.55-6.09,7.63-5.79C260,160.8,261.48,162.8,261.19,166.32Z"/><path class="538868e9-991b-4544-a1eb-199d90d87863" d="M537.66,320.69h5.12c-6.09,6-5.41,16.29-16.56,23.36,3.19-6.27,7.85-5.48,7.05-10.91l-6.09-12.46H533l-1.54,2.06,3.7,9.25C536.33,327.75,539.57,325,537.66,320.69Z"/><path class="afcf7168-d81d-45f1-a7cd-91f9feb48e48" d="M192.66,326.32H182.47c1.24,2.62,1.75,4.95,3.16,6.38,2,2,4.4.66,9.85-3.64-5.18,5.71-7.67,6.46-10.64,5.33-4-1.52-4.86-4.79-4.05-8.5.87-4,3.82-5.74,7.74-5.3C191.53,320.92,193,322.92,192.66,326.32Z"/><path class="852c3826-369e-45cc-9b9e-931fdeec5cbd" d="M213.25,361.32c-4.73,5.63-7.44,6.25-10.44,4.94-3.83-1.68-4.61-5-3.63-8.68s3.91-5.44,7.7-5c3,.35,4.39,2.35,4.09,5.71H200.83c1.18,2.59,1.64,4.92,3,6.34C205.9,366.72,208.28,365.44,213.25,361.32Z"/><path class="852c3826-369e-45cc-9b9e-931fdeec5cbd" d="M446.23,358.31H436c1.18,2.59,1.65,4.91,3,6.34,2.06,2.11,4.41.7,3.65,1.27,1-.23-1.35,1-3.44.65-4.37-.72-5.76-4.16-5.07-8.22s3.55-6.08,7.62-5.78C445,352.79,446.39,354.85,446.23,358.31Z"/><path class="852c3826-369e-45cc-9b9e-931fdeec5cbd" d="M464.35,134.38H454.07c1.26,2.59,1.8,4.9,3.22,6.34,2,2.07,4.37.5,8.41-2.18-3.65,4.12-6,4.92-8.94,3.95-4-1.34-5.09-4.51-4.41-8.26.73-4,3.51-5.9,7.46-5.68C463,128.72,464.51,130.67,464.35,134.38Z"/><path class="afcf7168-d81d-45f1-a7cd-91f9feb48e48" d="M467.35,294.29c1.32,2.7,1.87,5,3.29,6.44,2,2.06,4.37.47,8.5-2.23-3.77,4.15-6.14,5-9.06,4-4-1.36-5.08-4.52-4.39-8.27.73-4,3.53-5.89,7.47-5.66,3.17.18,4.64,2.18,4.56,5.74Z"/><path class="538868e9-991b-4544-a1eb-199d90d87863" d="M558.18,327.38c-.43,4.52-2.7,7.33-7.22,7.43s-7.27-2.46-7.4-7,2.55-7.18,7-7.29S557.56,323.05,558.18,327.38Z"/><path class="538868e9-991b-4544-a1eb-199d90d87863" d="M339.51,263.6c-.5,4.42-2.82,7.18-7.34,7.21s-7.22-2.6-7.27-7.09,2.69-7.13,7.17-7.16S339,259.15,339.51,263.6Z"/><path class="538868e9-991b-4544-a1eb-199d90d87863" d="M457.91,263.36c-.42,4.52-2.69,7.33-7.2,7.45s-7.27-2.45-7.41-6.95,2.54-7.18,7-7.31S457.29,259,457.91,263.36Z"/><path class="62e2611e-2d48-419e-b5a1-f3554c678699" d="M409.89,423.52c.46-4.5,2.92-7.09,7.43-7s7.23,2.61,7.1,7.22-2.91,7-7.36,7S410.26,428,409.89,423.52Z"/><path class="29c1ac58-49ac-4cb4-a4cc-7aeca24b1709" d="M237.18,396.31c-3.7,2.57-7.43,5.1-9.25-1.28-.75-2.62-.12-5.63-.12-8.34l-2.5-1.92h4.36c2.2,3.95-2.4,9.78,3.33,12.68.56.29,3.2-1.8,3.53-3.13.77-3.09,1.89-6.56-1.5-9.53h4.14c1.59,4.27-1.53,9.43,2.1,13.77l-3.41.36Z"/><path class="7174cb33-9ac3-4215-a3cc-20a36da71883" d="M298.49,194.37l-2.29-1.69h4.25c2.88,4-3,11.84,4.15,12.33,5.11.35,2.92-6.53,3.59-10.29l-2.43-2h4.39c1.58,4.29-1.47,9.44,2.12,13.82l-3.31.35-.81-2.52C301.07,209.29,300,208.23,298.49,194.37Z"/><path class="7174cb33-9ac3-4215-a3cc-20a36da71883" d="M185.66,386.17l-1.92-1.46H188c2.8,3.91-3,11.79,4,12.32,5.13.38,3-6.5,3.65-10.28l-2.42-2h4.42l1,13.9-2.15.25-.73-2.09C182.41,402.71,187.71,391.17,185.66,386.17Z"/><path class="538868e9-991b-4544-a1eb-199d90d87863" d="M501.81,320.4c4.31.5,7.3,2.65,7.26,7.22s-2.72,7.15-7.22,7.19-7.21-2.67-7.28-7.11S497.35,320.88,501.81,320.4Z"/><path class="538868e9-991b-4544-a1eb-199d90d87863" d="M239.58,416.4c4.28.59,7.22,2.79,7.09,7.36s-2.86,7.09-7.36,7-7.15-2.8-7.13-7.25S235.09,416.8,239.58,416.4Z"/><path class="29c1ac58-49ac-4cb4-a4cc-7aeca24b1709" d="M500.93,354.62l-2.44-1.93h4.82v12.19l2.33,1.66-4,.37-.52-2.21c-13.1,6.08-8.26-5.1-10-10.37l-1.88-1.64h4.18c2.55,3.86-3,11.78,4.09,12.29C502.39,365.35,500.35,358.56,500.93,354.62Z"/><path class="29c1ac58-49ac-4cb4-a4cc-7aeca24b1709" d="M492.43,236.32c-3.6,2.52-7.24,5.07-9.16-1.07-.83-2.66-.14-5.79-.14-8.51l-2.5-2h4.11c2.78,3.95-3.05,11.84,4.15,12.28,5.08.31,2.91-6.56,3.45-10.4L490,224.72h4.51l.87,14-2.22.23Z"/><path class="afcf7168-d81d-45f1-a7cd-91f9feb48e48" d="M333.43,236.87l2.17,1.82h-6.7l2.13-1.77c-.52-3.6,1.57-7.73-1.77-11.48l3.21-.79c.31.61.62,1.2.95,1.79,8.85,2.3,8.85,2.3,9.85,10.59l1.91,1.65h-6.67l2.56-2.09c-.44-3-.84-6.58-1.62-10-.09-.38-2.66-.82-3.51-.3C331.62,228.92,334,233.25,333.43,236.87Z"/><path class="afcf7168-d81d-45f1-a7cd-91f9feb48e48" d="M302.52,225.4l3.29-.73c.3.57.62,1.16.94,1.75,9,3,9,3,9.86,10.59l1.9,1.65h-6.62l2.52-2.08c-.43-3-.82-6.56-1.59-10-.09-.38-2.65-.84-3.5-.32-4.36,2.64-2,7-2.55,10.59l2.17,1.82h-6.65l2.17-1.85C303.76,233.21,306,229.08,302.52,225.4Z"/><path class="afcf7168-d81d-45f1-a7cd-91f9feb48e48" d="M253.89,206.69l2.49-1.63c-.55-3.74,1.55-7.87-1.79-11.62l3.22-.79.85,1.65c13.42-5.8,8.39,5.47,10.16,10.91l1.71,1.47h-6.69l2.58-2.09c-.45-3.06-.85-6.59-1.62-10-.09-.38-2.65-.81-3.51-.29-4.39,2.65-1.85,7-2.61,10.52l2.28,1.9Z"/><path class="afcf7168-d81d-45f1-a7cd-91f9feb48e48" d="M467.49,327.59c-.47,4.49-2.91,7.23-7.38,7.2s-7-2.69-7-7.08c0-4.57,2.76-7.18,7.22-7.13C464.59,320.63,467.09,323.21,467.49,327.59Z"/><path class="7174cb33-9ac3-4215-a3cc-20a36da71883" d="M275.82,450.12l-1.69-1.44h5.23c-6.12,5.84-5.49,16.07-13.56,20,.61-2.72,4.67-2.21,4.44-7l-6.16-13h5.62L268,450.57l3.84,9.68Z"/><path class="afcf7168-d81d-45f1-a7cd-91f9feb48e48" d="M404.88,367c-4.39-.55-7.2-2.72-7.26-7.16s2.66-7.23,7.12-7.23c4.26,0,7.11,2.47,7.17,6.94S409,366.28,404.88,367Z"/><path class="7174cb33-9ac3-4215-a3cc-20a36da71883" d="M249.51,128.4c4.25.64,7.22,2.66,7.19,7.17s-2.78,7.22-7.21,7.21-7.12-2.77-7.08-7.3S245.38,129,249.51,128.4Z"/><path class="7174cb33-9ac3-4215-a3cc-20a36da71883" d="M391.76,263.64c-.5,4.49-3,7.21-7.43,7.15s-7-2.74-7-7.13c0-4.57,2.82-7.16,7.27-7.08C388.91,256.65,391.38,259.26,391.76,263.64Z"/><path class="7174cb33-9ac3-4215-a3cc-20a36da71883" d="M521.4,301.79l-6.22-13.09h10.31l-6.83.88,4.24,10.64,3.84-9.59-2.07-2h5.46l-11.64,21.13C517.65,306.05,521.57,306.41,521.4,301.79Z"/><path class="7174cb33-9ac3-4215-a3cc-20a36da71883" d="M327.56,213.81c-.55-3.6,2.93-3.51,3-7.85l-6.26-13.25h7.62l-4,1.24,4.12,10.3,4-10.05-1.74-1.52h4.94Z"/><path class="7174cb33-9ac3-4215-a3cc-20a36da71883" d="M386.31,327.34c-.36,4.65-2.79,7.39-7.24,7.44s-7.06-2.57-7.15-7c-.1-4.56,2.63-7.24,7.1-7.25C383.3,320.56,385.84,323.09,386.31,327.34Z"/><path class="7174cb33-9ac3-4215-a3cc-20a36da71883" d="M365.12,192.41c4.05.57,7.12,2.4,7.2,7s-2.59,7.28-7,7.4-7.21-2.58-7.27-7.1S360.79,193,365.12,192.41Z"/><path class="7174cb33-9ac3-4215-a3cc-20a36da71883" d="M251.91,199.66c-.49,4.52-3,7.2-7.44,7.12s-7-2.77-7-7.16c0-4.56,2.84-7.16,7.3-7.05C249.09,192.68,251.58,195.26,251.91,199.66Z"/><path class="7174cb33-9ac3-4215-a3cc-20a36da71883" d="M399.63,231.53c-.37,4.48-2.8,7.21-7.25,7.25s-7-2.6-7.13-7c-.08-4.56,2.66-7.23,7.12-7.23C396.64,224.58,399.23,227.07,399.63,231.53Z"/><path class="7174cb33-9ac3-4215-a3cc-20a36da71883" d="M459.61,463c-4.31-.55-7.11-2.74-7.16-7.17s2.69-7.24,7.15-7.2c4.23,0,7.1,2.43,7.13,7S463.87,462.31,459.61,463Z"/><path class="7174cb33-9ac3-4215-a3cc-20a36da71883" d="M484.68,160.72l-2.13,1.66,3.92,9.83,4.08-10.11-3-1.41H494c-6.1,5.82-5.48,16-13.52,20,.6-2.75,4.77-2.11,4.32-7.19l-6-12.8Z"/><path class="7174cb33-9ac3-4215-a3cc-20a36da71883" d="M293.42,404.32c2.29-2.21,6.09-2,6-6.39l-6.28-13.25h5.77L297,386.47l3.92,9.76,4-10.12-3.17-1.45h6.65c-6.13,5.87-5.2,15.54-12.32,20.51C295.71,405.43,294.67,404.74,293.42,404.32Z"/><path class="7174cb33-9ac3-4215-a3cc-20a36da71883" d="M178.59,244.68c.88-2.58,4.71-2.29,4.48-6.93l-6.22-13.08h5.85l-2,1.78,3.93,9.79,4-10.16-3.16-1.44h6.63C186,230.52,186.69,240.76,178.59,244.68Z"/><path class="afcf7168-d81d-45f1-a7cd-91f9feb48e48" d="M428,399c-4.36-.58-7.18-2.72-7.23-7.18s2.71-7.22,7.14-7.2c4.24,0,7.1,2.46,7.14,7S432.21,398.28,428,399Z"/><path class="afcf7168-d81d-45f1-a7cd-91f9feb48e48" d="M549.55,416.41c4.12.62,7.13,2.55,7.15,7.09s-2.72,7.24-7.13,7.27-7.15-2.67-7.15-7.22S545.3,417,549.55,416.41Z"/><path class="afcf7168-d81d-45f1-a7cd-91f9feb48e48" d="M473.63,359.5c-.47,4.58-2.92,7.31-7.38,7.28s-7-2.65-7-7.07c0-4.59,2.77-7.17,7.21-7.14C470.72,352.61,473.2,355.21,473.63,359.5Z"/><path class="afcf7168-d81d-45f1-a7cd-91f9feb48e48" d="M421.89,135.51c-.39,4.48-2.81,7.24-7.27,7.27s-7-2.56-7.13-7c-.09-4.59,2.67-7.22,7.11-7.23C418.88,128.56,421.43,131.1,421.89,135.51Z"/><path class="afcf7168-d81d-45f1-a7cd-91f9feb48e48" d="M428.91,207c-4.38-.67-7.16-3-7-7.54s2.95-6.93,7.25-6.83,7.07,2.57,7,7.07S433.21,206.38,428.91,207Z"/><path class="afcf7168-d81d-45f1-a7cd-91f9feb48e48" d="M409.35,224.41c4.13.67,7.12,2.64,7.08,7.18s-2.8,7.2-7.22,7.19-7.12-2.76-7.06-7.31S405.12,224.94,409.35,224.41Z"/><path class="afcf7168-d81d-45f1-a7cd-91f9feb48e48" d="M353.25,399c-4.26-.59-7.07-2.75-7.1-7.21s2.74-7.21,7.18-7.16c4.24,0,7.09,2.5,7.1,7S357.55,398.34,353.25,399Z"/><path class="afcf7168-d81d-45f1-a7cd-91f9feb48e48" d="M499.77,423.55c-.5,4.57-3,7.29-7.42,7.23s-7-2.7-7-7.12c0-4.59,2.81-7.16,7.25-7.09S499.36,419.26,499.77,423.55Z"/><path class="afcf7168-d81d-45f1-a7cd-91f9feb48e48" d="M234.08,130.52l-3.59-1,3.56-.79c0-4.67,1.33-8.49,7.22-7.75.94.12,1.78,1,2.84,2.49-7.2-3.68-7.89,0-7.45,5.34l7.16.65-7.06.92v10.53l2.81,1.71h-7.65l2.16-1.7Z"/><path class="afcf7168-d81d-45f1-a7cd-91f9feb48e48" d="M367.84,384.86l7,.55-6.86,1V397l2.75,1.58H363l2.3-1.55V386.57l-3.44-1,3.48-.92c-.08-4.89,1.5-8.43,7.32-7.66.88.12,1.64,1.09,2.52,2.49C368.05,375.74,367.5,379.53,367.84,384.86Z"/><path class="7174cb33-9ac3-4215-a3cc-20a36da71883" d="M328.35,316.39l-2.86-2.08h8.74l-2.8,2.17v16.09l3.06,2.07h-9.41l3.27-2Z"/><path class="7174cb33-9ac3-4215-a3cc-20a36da71883" d="M247.41,346.29h9.06l-2.84,2.1v16.29l3.13,1.88H247.4l3-1.88V348.31Z"/><path class="7174cb33-9ac3-4215-a3cc-20a36da71883" d="M158.39,142.45l3-1.76V124.31l-2.86-1.93h8.78l-2.75,2v16.2l2.9,1.84Z"/><path class="7174cb33-9ac3-4215-a3cc-20a36da71883" d="M516.87,154.32l-3,2.07v16.19l3.05,2.06h-9.36l3.22-2V156.41l-2.81-2.09Z"/><path class="852c3826-369e-45cc-9b9e-931fdeec5cbd" d="M561.47,418.44l-4.17-.86,4.17-.78c0-4.58,1.15-8.4,7-7.8,1,.1,1.92,1,3,2.4-7.1-3.52-7.87,0-7.46,5.43l6.75.66-6.65.94v10.48l2.82,1.72H559.4l2.07-1.71Z"/><path class="852c3826-369e-45cc-9b9e-931fdeec5cbd" d="M349.8,192.8c-.07-4.66,1.11-8.19,6.62-7.85,1.44.09,3.13.07,2.67,2.91-6.48-4-7.26-.42-6.85,5l6.74.65-6.64.95v10.48l2.82,1.72h-7.51l2.07-1.71V194.49l-4.12-.93Z"/><path class="852c3826-369e-45cc-9b9e-931fdeec5cbd" d="M450.91,354.48l-3.86-.9,3.9-.83c-.13-4.89,1.39-8.48,7.27-7.71.9.12,1.69,1.1,2.59,2.5-6.94-3.68-7.81-.21-7.38,5.22l6.55.86-6.44.78v10.53l2.87,1.73h-7.72l2.22-1.73Z"/><path class="538868e9-991b-4544-a1eb-199d90d87863" d="M453.51,271.49l6.7,4.78c3.39-5.66.65-11.76,1.81-17.2l-2.86-1.92,5.53-1.29c-1.29,7.09,2.27,14.22-2.56,20.3-.79,1-3.56.63-5.37.44C456.17,276.55,455.73,275.08,453.51,271.49Z"/><path class="538868e9-991b-4544-a1eb-199d90d87863" d="M378,432.33l-6.85-15.63c1.39,0,3.35,0,5.32,0-2.32,3.88,1.29,6.56,1.84,11.77,1.41-5,4.88-7.6,2.41-11.81H385Z"/><path class="538868e9-991b-4544-a1eb-199d90d87863" d="M406.43,408.73v21.86H400.9l2.13-1.79V411.57l-2.46-1.82Z"/><path class="e5c2c3dd-34ed-4e22-97d7-7d7ce86e5bca" d="M569.47,123.33l-2.59-1.48,5.13-1v20l2.56,1.79h-7.4l2.3-1.6Z"/><path class="29c1ac58-49ac-4cb4-a4cc-7aeca24b1709" d="M476.57,160.67l-6.87,15.28-6.86-15.21h5.64l-1.64,1.74L470.2,172l4-10-3.43-1.36Z"/><path class="29c1ac58-49ac-4cb4-a4cc-7aeca24b1709" d="M399.13,322.72l-1.93-2h4.5L394.83,336,388,320.75h5.89l-2,1.57,3.46,9.68Z"/><path class="29c1ac58-49ac-4cb4-a4cc-7aeca24b1709" d="M450.32,236l3.75-9.3-1.93-2h4.53L449.75,240,443,224.74h7.61L446.74,226Z"/><path class="3e92034f-43bf-40c0-8fcc-36211caaf3ec" d="M228.35,420.2c-1.76-1.57-3-3.49-5.67-.87,2.71,3.9,15.19,10.35-1.83,11.49v-4.47c1.83,1.77,3.08,4.42,6.21,2.3.39-4.44-6-3.84-6.1-7.51-.24-5.84,3.8-4.62,7.59-4Z"/><path class="62e2611e-2d48-419e-b5a1-f3554c678699" d="M305.48,430.59c2.09-4.27,1.75-8.37.15-13l2.83-.75,1.48,1.85c1.89-1.07,3.63-3.66,6.89-.08l-5.23.38a10.17,10.17,0,0,0-.73,11.61Z"/><path class="62e2611e-2d48-419e-b5a1-f3554c678699" d="M347.76,270.72h-5.63a13.38,13.38,0,0,0,0-13c1.45-.42,3.26-2,4.47.92,2-.79,3.71-3.87,6.87-.18l-5.13.63C345.91,262.31,345.27,266.2,347.76,270.72Z"/><path class="538868e9-991b-4544-a1eb-199d90d87863" d="M495.12,260.18c-8.66-4.54-10.37-.61-8.8,6.12,1.13,4.83,4.73,3.22,8.19,3-2.21.48-4.5,1.58-6.61,1.31-3.74-.49-5.15-3.48-5.08-7,.07-3.84,2-6.46,5.9-7C490.94,256.27,493.52,256,495.12,260.18Z"/><path class="538868e9-991b-4544-a1eb-199d90d87863" d="M437.17,270.68h-6c3.53-3.45,1-7.46,1.94-10.9L431,257.91c2-.68,3.79-2,5.05.84,1.91-1.3,3.76-3.51,7.22-.06H437.9C435.33,262.42,434.5,266.29,437.17,270.68Z"/><path class="538868e9-991b-4544-a1eb-199d90d87863" d="M465.39,430.67H459.2l2.1-2c-.78-3.45,1.54-7.42-1.94-10.89l3.51-1c.56.68,1,1.24,1.52,1.8,1.9-.94,3.71-3.72,6.6.11h-4.87C463.64,422.4,462.82,426.21,465.39,430.67Z"/><path class="7174cb33-9ac3-4215-a3cc-20a36da71883" d="M355,142.71h-7.74l2.65-1.64V123.23l-2.81-1.37,5.31-1v19.87Z"/><path class="7174cb33-9ac3-4215-a3cc-20a36da71883" d="M476.44,398.68h-7.6l2.7-1.6V379.32l-2.63-1.41,5-1.1v19.77Z"/><path class="20180f41-b695-40a3-b413-7e7e3e2c5da6" d="M495,452.27c-1.89-2.32-3.42-3.62-5.81-.72,3.66,4,14.94,9.78-1.56,11.13v-3.41a30.53,30.53,0,0,0,4.81,2.13c.47.13,1.32-1.17,1.89-1.71-1.81-3.74-8.53-3.61-6.19-9.17,1.34-3.18,4.31-1.81,6.87-1.3Z"/><path class="cb5bd3d1-3057-427f-9694-2319f600fb33" d="M543.67,189.07l-3.19-1.51,5.79-1.22V204.5l3.35,2.07h-8.89l2.94-2Z"/><path class="20180f41-b695-40a3-b413-7e7e3e2c5da6" d="M507.93,363.34a28.52,28.52,0,0,0,4.79,2.08c.5.12,1.34-1.15,1.91-1.67-1.72-3.83-8.76-3.65-6.06-9.41,1.4-3,4.25-1.56,6.76-1.12v2.73c-1.78-1.44-3.34-3.74-5.36-.84,3.21,10.79,3.21,10.79-2,10.81C507.93,364.89,507.93,363.86,507.93,363.34Z"/><path class="20180f41-b695-40a3-b413-7e7e3e2c5da6" d="M514.33,237.91c0-1,0-2.07,0-2.67a30.6,30.6,0,0,0,4.79,2.18c.47.13,1.33-1.15,1.92-1.69-1.78-3.76-8.51-3.62-6.21-9.17,1.32-3.19,4.29-1.86,6.9-1.32V228c-1.78-1.57-3.36-3.65-5.38-.92C519.61,237.93,519.61,237.93,514.33,237.91Z"/><path class="20180f41-b695-40a3-b413-7e7e3e2c5da6" d="M420.59,459.4a27.27,27.27,0,0,0,4.66,2c.5.12,1.34-1.14,1.92-1.67-1.72-3.83-8.76-3.66-6.06-9.41,1.4-3,4.25-1.57,6.76-1.12v2.72c-1.78-1.43-3.34-3.74-5.36-.83,3.19,10.8,3.19,10.8-1.91,10.82Z"/><path class="7174cb33-9ac3-4215-a3cc-20a36da71883" d="M474.76,219.28,472,217.87l5.2-1v19.83l2.53,2h-7.55l2.6-1.71Z"/><path class="7174cb33-9ac3-4215-a3cc-20a36da71883" d="M508.65,283.27l-2.8-1.4,5.14-1v19.93l2.69,1.83h-7.44l2.41-1.63Z"/><path class="0249abb7-88ed-4e5e-9bd4-77f782498a26" d="M346.25,386.6H341c-3.19,2.85-2.4,6.66-2.41,10.34l2.1,1.75h-7.17l2.37-1.6v-9.67l-2.25-1.57,4.18-1,1,2.28C340.69,386,342.24,383,346.25,386.6Z"/><path class="0249abb7-88ed-4e5e-9bd4-77f782498a26" d="M518.71,387.23c1.94-1.5,3.37-4,6.17-1.82-.55,3.05-2.55.9-4.2,1.42-3,2.63-2.14,6.46-2.25,10.06l2.16,1.79h-6.67c3.88-3.35,1-7.54,2.14-11.09l-2.53-1.77,4.24-1Z"/><path class="20180f41-b695-40a3-b413-7e7e3e2c5da6" d="M218.6,333l2.13,1.72H213.5l2.39-1.62v-9.65l-2.27-1.58,4.21-1,.93,2.27c1.94-1.12,3.46-4.21,7.2-.65l-5.42.52C217.82,325.5,218.58,329.3,218.6,333Z"/><path class="0249abb7-88ed-4e5e-9bd4-77f782498a26" d="M276,162.42l-5.64.59c-2.79,2.45-1.93,6.27-2,9.88l2.16,1.79h-6.63c3.73-3.37,1.1-7.51,2-11.15l-2.43-1.7,4.24-1,.88,2.3C270.42,162,271.86,159.08,276,162.42Z"/><path class="0249abb7-88ed-4e5e-9bd4-77f782498a26" d="M217.63,352.83l.68,2.38c2-1.17,3.4-4.13,6.29-1.8-.53,3-2.53.91-4.29,1.44-2.81,2.62-2.08,6.41-2.14,10l2.14,1.78H213.7c3.73-3.35,1.09-7.49,2-11.14l-2.43-1.7Z"/><path class="0249abb7-88ed-4e5e-9bd4-77f782498a26" d="M496.42,291.42l-2.26-1.57,4.2-1,.94,2.29c1.93-1.15,3.46-4.19,7.21-.68l-5.44.55c-2.73,2.47-2,6.27-1.95,10l2.13,1.74H494l2.39-1.61Z"/><path class="0249abb7-88ed-4e5e-9bd4-77f782498a26" d="M234.39,226.46l-5.64.53c-2.79,2.51-2,6.32-2,9.93l2.23,1.78h-7.22l2.34-1.62V227.4l-2.26-1.57,4.28-.95.84,2.31C228.84,226,230.28,223.08,234.39,226.46Z"/><path class="0249abb7-88ed-4e5e-9bd4-77f782498a26" d="M318.86,141l2.13,1.72h-7.22l2.39-1.62v-9.65l-2.27-1.58,4.21-1,.92,2.27c1.94-1.12,3.46-4.21,7.2-.66l-5.42.52C318.08,133.5,318.85,137.3,318.86,141Z"/><path class="29c1ac58-49ac-4cb4-a4cc-7aeca24b1709" d="M402.05,142.71h-7.29l2.36-1.61v-9.65l-2.22-1.58,4.07-1,1.08,2.32c1.93-1.32,3.46-4.19,7.17-.65l-5.35.47c-3,2.39-2,6.31-2,10Z"/><path class="0249abb7-88ed-4e5e-9bd4-77f782498a26" d="M557.64,387.37l-2.31-1.54,4.34-1,.84,2.3c2-1.19,3.5-4.31,7.17-.71l-5.36.55c-2.77,2.44-1.9,6.26-2,9.94l2.12,1.72h-7l2.17-1.62Z"/><path class="29c1ac58-49ac-4cb4-a4cc-7aeca24b1709" d="M259.32,129.74l3.66-.88,1.08,2.3c1.93-1.25,3.44-4.21,7.18-.67l-5.42.5c-2.77,2.51-1.94,6.31-2,10L266,142.7h-7.09l2.41-1.87C260.47,137.32,262.87,133.27,259.32,129.74Z"/><path class="29c1ac58-49ac-4cb4-a4cc-7aeca24b1709" d="M406.23,258.6h-5c-3.27,2.82-2.38,6.65-2.46,10.33l2.09,1.73H394l2.07-1.61v-9.68l-2.23-1.55,4.26-1,.83,2.31C400.91,258,402.4,254.86,406.23,258.6Z"/><path class="7174cb33-9ac3-4215-a3cc-20a36da71883" d="M551.77,131.79c-3.27-.32-7.32-4.94-8.6,1.09a11.17,11.17,0,0,0,1.4,7.67c1.56,2.4,4.29.69,2.07,1.79,2.49-.5.18.6-1.87.24-4-.72-5.15-4-4.8-7.73.37-3.94,2.79-6.06,6.66-6.32C548.66,128.4,550.87,128.5,551.77,131.79Z"/><path class="0249abb7-88ed-4e5e-9bd4-77f782498a26" d="M367,447.82v4c-1.73-1.14-3.21-3.42-5.77-.35,2.46,3.69,15.42,10-1.62,11.27V458.3c1.72,2.24,3.18,4.49,6.93,2C366.22,456.95,352.54,451.76,367,447.82Z"/><path class="20180f41-b695-40a3-b413-7e7e3e2c5da6" d="M222.37,385.3v2.61c-1.67-1.45-3.06-3.43-5.74-.49,2.66,3.71,15.4,10-1.6,11.32v-4.36c1.76,2,3.12,4.52,6.32,2.32.45-4.54-6-3.85-6.14-7.48C214.91,383.47,218.67,384.29,222.37,385.3Z"/><path class="20180f41-b695-40a3-b413-7e7e3e2c5da6" d="M396.28,384v3.89c-1.66-1.44-3.07-3.35-5.14-1.25.17,11.19.17,11.19-2.2,11.36,0-1.1,0-2.19,0-3.72,1.68,2.22,3,4.42,6.73,2.16C396.19,393.13,381.22,387.56,396.28,384Z"/><path class="0249abb7-88ed-4e5e-9bd4-77f782498a26" d="M408,388.06c-1.74-1.79-3.1-3.41-5.14-1.37.31,11.16.31,11.16-2.26,11.32v-3.21c3.84,3.07,3.84,3.07,6.84,1.73.36-3.43-14.36-9,.56-12.54Z"/><path class="0249abb7-88ed-4e5e-9bd4-77f782498a26" d="M555.21,225.31v2.51c-1.68-1.16-3-3.38-5.14-1.12,0,11.18,0,11.18-2.21,11.36,0-1.1,0-2.2,0-3.73,1.74,2.25,3.17,4.55,6.31,2.34.32-4.5-6.05-3.83-6.2-7.54C547.76,223.57,551.45,224.26,555.21,225.31Z"/><path class="29c1ac58-49ac-4cb4-a4cc-7aeca24b1709" d="M180.22,430c0-1.05,0-2.1,0-3.57,1.74,2.08,3.13,4.5,6.33,2.29.39-4.5-6-3.83-6.19-7.47-.35-5.61,3.42-4.89,7.19-4v2.62c-1.6-1.11-2.9-3.44-5.08-1.19C182.28,429.87,182.28,429.87,180.22,430Z"/><path class="29c1ac58-49ac-4cb4-a4cc-7aeca24b1709" d="M237.3,226.75c1.08,11,1.08,11-2.14,11.24,0-1.05,0-2.1,0-3.23,3.57,3.29,3.57,3.29,6.71,1.75.48-3.44-14.49-9.07.71-12.39v3.76C240.89,226.78,239.6,224.41,237.3,226.75Z"/><path class="29c1ac58-49ac-4cb4-a4cc-7aeca24b1709" d="M390.39,174v-3.69c1.69,2.39,3.19,4.5,9.22.46-3.53-2.17-8.34-3.49-8.82-5.74-1.16-5.4,3.3-4.6,6.91-3.78V164c-1.6-1.32-2.83-3.39-5.6-.92,2.3,2.63,6.44,5.21,6.52,7.91C398.82,177,393.69,174.14,390.39,174Z"/><path class="29c1ac58-49ac-4cb4-a4cc-7aeca24b1709" d="M488.3,356.29c-7.85-4.68-10.2-1.56-9.06,5.29.88,5.33,4.54,4.6,11.58.49-5.37,4.62-7.86,5.46-10.72,4.28-3.55-1.47-4.26-4.54-3.82-7.93s2.73-5.53,6.2-5.87C484.59,352.36,486.92,352.3,488.3,356.29Z"/><path class="29c1ac58-49ac-4cb4-a4cc-7aeca24b1709" d="M383.54,130c-7.92-2.5-10,1-8.76,7.81,1,5.19,4.6,4.31,11.57.19-5.42,4.7-7.9,5.53-10.75,4.37-3.55-1.45-4.28-4.52-3.84-7.91a6.18,6.18,0,0,1,6.18-5.84C379.77,128.53,381.66,129.51,383.54,130Z"/><path class="29c1ac58-49ac-4cb4-a4cc-7aeca24b1709" d="M498.74,395.42c-4,3.52-6.76,4.27-9.72,2.63-3.18-1.76-3.67-4.87-3.05-8.1s3-5.18,6.35-5.41c2-.14,4.28-.15,5.42,3.27-9-4.33-10.43.1-8.51,7C490.47,399.3,494.08,397.49,498.74,395.42Z"/><path class="29c1ac58-49ac-4cb4-a4cc-7aeca24b1709" d="M479.48,139.71c-3.07,3.12-5.62,3.81-8.47,2.64-3.55-1.46-4.26-4.55-3.79-7.94a6.23,6.23,0,0,1,6.48-5.82c1.76,0,3.54,1,5.54,2.45-8.62-3.5-10.48.38-8.84,7.33C471.55,143.3,475.26,141.57,479.48,139.71Z"/><path class="29c1ac58-49ac-4cb4-a4cc-7aeca24b1709" d="M432.47,458.38c1.68,2.26,3.1,4.38,6.71,2-.35-3.43-13.39-8.84.42-12.79.21,2,.28,2.32.28,2.66s0,.87-.07,1.62c-1.65-1.18-3-3.35-5.11-1.35-.66,11.38-.66,11.38-2.24,11.34C432.47,460.87,432.47,459.84,432.47,458.38Z"/><path class="10238eef-3ffb-4d62-a812-92411c4f608b" d="M504.84,269.07c-2.78,3.41-6.6,2-6.69-2.36-.07-3.1,0-6.21,0-10.74l2.36-2.2.54,2.69,4,1-3.84.92c0,3.56,0,7.11,0,11Z"/><path class="3e92034f-43bf-40c0-8fcc-36211caaf3ec" d="M369.94,288.06l2.28-2.43.66,2.82,3.65,1-3.6.9v11c1.42-.11,2.47-.2,3.52-.26-2.44,3.42-6.39,2-6.49-2.32C369.88,295.67,369.94,292.55,369.94,288.06Z"/><path class="20180f41-b695-40a3-b413-7e7e3e2c5da6" d="M300.41,352.66l2.72-2.23.5,2.27,5.34.79-4.9.71V366l3.22-1c-1,2.05-4,2.9-5.11,1.06s-1-4.3-1.28-6.51C300.65,357.5,300.6,355.48,300.41,352.66Z"/><path class="a623b444-3bb5-4ffe-a25a-0cb51bbb9990" d="M389.91,142l3.52-1.13c-2.65,3.57-6.56,2.2-6.66-2.11-.07-3.15,0-6.29,0-10.53l2.24-2.43.44,2.85,5.39.91-4.91.63Z"/><path class="852c3826-369e-45cc-9b9e-931fdeec5cbd" d="M445.77,302.69l2.6-1.74c-.75-3.61,1.48-7.69-1.91-11.25l3.78-.83.68,2.38c2-1.26,3.44-4.17,6.31-1.82-.56,2.83-2.33,1.12-4,1.23-3.32,2.68-2.38,6.6-2.51,10.23l2.27,1.8Z"/><path class="852c3826-369e-45cc-9b9e-931fdeec5cbd" d="M374.31,206.69l2.57-1.73c-.75-3.63,1.6-7.72-2-11.24l3.89-.85.68,2.38c2-1.26,3.44-4.17,6.33-1.81-.58,2.77-2.34,1.13-3.94,1.18-3.32,2.72-2.5,6.6-2.49,10.31l2.2,1.75Z"/><path class="852c3826-369e-45cc-9b9e-931fdeec5cbd" d="M290,225.74l4-.86.68,2.38c2-1.26,3.44-4.17,6.31-1.82-.56,2.83-2.33,1.12-4,1.23-3.29,2.69-2.47,6.57-2.45,10.29l2.2,1.75h-7.25l2.57-1.72C291.26,233.35,293.8,229.22,290,225.74Z"/><path class="38f237a2-b80b-4961-91a2-589b99224cc7" d="M451,194.54l-5.49.39c-3,2.44-2,6.34-2.17,10l2.27,1.8h-6.84l2.08-1.84c-.7-3.44,1.7-7.51-1.94-11.08l3.78-.93.84,2.33C445.43,194.21,446.88,190.93,451,194.54Z"/><path class="38f237a2-b80b-4961-91a2-589b99224cc7" d="M421.53,366.65l2.29-1.8c-.85-3.56,1.75-7.7-2.11-11.11l4-.86.68,2.46c2-1.51,3.46-4,6.31-2-.59,3.1-2.57,1-4.4,1.53-2.36,3.53-3.45,7.38-.52,11.8Z"/><path class="38f237a2-b80b-4961-91a2-589b99224cc7" d="M168.23,334.68l2.27-1.87c-.85-3.48,1.63-7.53-2-11l3.75-.95.94,2.38c2-1.28,3.38-4.12,6.24-1.78-.58,2.81-2.34,1.1-4,1.22-3.28,2.67-2.46,6.54-2.47,10.24l2.13,1.77Z"/><path class="852c3826-369e-45cc-9b9e-931fdeec5cbd" d="M202,385.74l3.83-.87.85,2.34c1.9-1.18,3.44-4.07,6.31-1.82-.68,2.89-2.44,1.08-4.07,1.3-3.18,2.7-2.42,6.55-2.37,10.26l2.21,1.75h-6.87l2.11-1.85C203.31,393.41,205.72,389.33,202,385.74Z"/><path class="0249abb7-88ed-4e5e-9bd4-77f782498a26" d="M301.47,174.19l3.5-1.26c-10.28,1.47-3.48-8.72-8-11.48l3.76-3.15.62,2.38,4.61.78-5,1Z"/><path class="0249abb7-88ed-4e5e-9bd4-77f782498a26" d="M301.56,321.62l3.46-3.76.56,2.79,4.79.82-4.33.77v11.71l3.18-1C299,334.37,305.76,324.23,301.56,321.62Z"/><path class="0249abb7-88ed-4e5e-9bd4-77f782498a26" d="M204.89,321.58l-4.93.61v11.76l3.28-1c-2.34,3.56-6.4,2.16-6.5-2.11-.07-3.12,0-6.25,0-10.75l2.15-1.92.63,2.55Z"/><path class="a623b444-3bb5-4ffe-a25a-0cb51bbb9990" d="M392.12,366l3.49-1.11c-2.6,3.59-6.49,2.2-6.62-2.15-.09-3.09,0-6.18,0-10.66l2.32-2.12.31,2.66,4.94.89-4.43.72Z"/><path class="a623b444-3bb5-4ffe-a25a-0cb51bbb9990" d="M319.12,206.06l3.19-1.13c-10.17,1.2-3.66-8.65-7.85-11.52l3.73-3.44.39,2.72,5.25.79-4.7.73Z"/><path class="9bf21219-e816-45ba-b6e3-a3a1f25b1c31" d="M212,172.94l2.72,1.67h-7.93l2.5-1.53v-9.84l-2.63-1.55,5.34-1Z"/><path class="9bf21219-e816-45ba-b6e3-a3a1f25b1c31" d="M309.16,448.67v12.23l2.52,1.74h-8l2.68-1.58v-9.83l-2.65-1.58Z"/><path class="20180f41-b695-40a3-b413-7e7e3e2c5da6" d="M385.46,172.73l2.48,1.86h-7.22l2.13-1.69v-9.73l-2.74-1.42,5.35-1.12Z"/><path class="20180f41-b695-40a3-b413-7e7e3e2c5da6" d="M535.46,140.82l2.55,1.75H530.5l2.3-1.62v-9.78l-2.72-1.46,5.38-1.05Z"/><path class="0249abb7-88ed-4e5e-9bd4-77f782498a26" d="M340.21,355.15l-2.59-1.45,5.26-1.05v12.17l2.64,1.8h-7.75l2.44-1.54Z"/><path class="38f237a2-b80b-4961-91a2-589b99224cc7" d="M476.75,194.36l.63,11.77,3.5-1.19c-1,2.05-4.11,2.9-5.14,1.06s-.92-4.33-1.19-6.56c-.24-2-.3-4-.5-6.9l2.64-2.2.52,2.37,5.1.77Z"/><path class="38f237a2-b80b-4961-91a2-589b99224cc7" d="M372.13,448.17l2.09-1.95.6,2.46,4.94.87-4.53.66v11.73l3.52-1c-2.76,3.57-6.54,2.16-6.61-2.22C372.1,455.63,372.13,452.59,372.13,448.17Z"/><path class="20180f41-b695-40a3-b413-7e7e3e2c5da6" d="M413.8,387.15,411,385.7l5.49-1V396.8l2.47,1.83h-7.49l2.37-1.71Z"/><path class="38f237a2-b80b-4961-91a2-589b99224cc7" d="M447.36,320.72l5,.79-5.49.85.58,11.66,3.71-1.07c-2.52,3.55-6.44,2.13-6.52-2.21-.05-3.12,0-6.25,0-10.57l2.09-1.86Z"/><path class="38f237a2-b80b-4961-91a2-589b99224cc7" d="M322.28,227.14l-2.74-1.41,4.9-1c1.77,4.56-1.64,9.77,2.57,13.83h-7.26l2.53-1.49Z"/><path class="38f237a2-b80b-4961-91a2-589b99224cc7" d="M447.64,448.77c1.77,4.55-1.63,9.75,2.56,13.82H443l2.49-1.48v-10l-2.72-1.42Z"/><path class="38f237a2-b80b-4961-91a2-589b99224cc7" d="M209.77,320.57v12.31l2.61,1.73H204.5l2.59-1.51v-9.9l-2.55-1.41Z"/><path class="4f5cab7c-3341-4c51-92ed-1e09d2077f31" d="M417.55,547.24a24.52,24.52,0,0,1-25,25c-14,0-24.66-11-24.64-25.29a24.52,24.52,0,0,1,24.83-24.84C406.82,522.08,417.56,533,417.55,547.24Z"/><path class="4f5cab7c-3341-4c51-92ed-1e09d2077f31" d="M655.95,547.31a24.51,24.51,0,0,1-25,24.9c-13.94,0-24.6-11-24.57-25.36a24.52,24.52,0,0,1,24.9-24.77C645.25,522.1,656,533,655.95,547.31Z"/><path class="4f5cab7c-3341-4c51-92ed-1e09d2077f31" d="M894.88,547.24a25.07,25.07,0,1,1-25-25.16A25.1,25.1,0,0,1,894.88,547.24Z"/><path class="07db1da6-152e-4d26-a477-38f7e9438240" d="M179.15,547.16A25.07,25.07,0,1,1,154,522.08,25.1,25.1,0,0,1,179.15,547.16Z"/><path class="a309862a-e73f-4c89-9270-423d42ddc26d" d="M629.42,35.47c-1.78,7-6,11.25-11.79,15.2-1.65-4.73.58-7.72,2.54-10.63S624.21,34.59,629.42,35.47Z"/><path class="1a610bb6-662a-44ce-9390-936a2550f19e" d="M587,35.78v9.8c-.83,1.37-2.16,3.52-5.6,3.56C579.95,43.33,583.77,40,587,35.78Z"/><path class="f251cca6-b2a3-46c7-b599-4ebfb1241e17" d="M641.11,37,652.51,14.9C650,26.62,646.31,32.23,641.11,37Z"/><path class="f879b64e-650f-49ed-a5e1-6fed89468195" d="M661,34.32c-1,5.78-4.68,7.6-9.69,9.26C653.59,39.06,655.39,35.26,661,34.32Z"/><path class="f879b64e-650f-49ed-a5e1-6fed89468195" d="M674.33,48.11l-6.8-4.67,4.74-6.91Z"/><path class="4f5cab7c-3341-4c51-92ed-1e09d2077f31" d="M768,380.22c-5-2.82-7.86-7.56-11.78-12.67,13.9,24.79-11.2,30.64-19.78,44.87-7.51-5.22-14.48-10.12-23.72-7l4.69-1.41-2.5-1.56-13.32,8.11c-8-13.92-27.14-19.49-29.45-38.4l-3.87,4.29-82.44-81.83L720,160.4,854.22,294.62Z"/><path class="8a2aebda-e029-4f3a-96a5-86618d31efd9" d="M714.45,407.23l11.19,8-2,1.78L713,408.76Z"/><path class="2980302c-370f-4e4b-b661-98765c1bb84a" d="M520.18,39.28c-4.58,2.79-5.79,9.33-12,10.87-1.49-4.09.64-7.05,2.54-9.88s4-5.72,8.55-4.91q.4,2,.8,4Z"/><path class="a309862a-e73f-4c89-9270-423d42ddc26d" d="M466.9,50.72c-1.34-5,.84-8.08,2.94-11,1.84-2.58,3.91-5.15,8.82-4.18C477.2,42.53,472.83,46.69,466.9,50.72Z"/><path class="a309862a-e73f-4c89-9270-423d42ddc26d" d="M374.63,50.72c-1.34-5,.84-8.08,2.94-11,1.84-2.58,3.91-5.15,8.82-4.18C384.94,42.53,380.56,46.69,374.63,50.72Z"/><path class="deb547af-de97-428b-9cfe-b1ba127961de" d="M429.13,19.23c-.33,7.22-3.79,12.82-9,17.49Z"/><path class="2980302c-370f-4e4b-b661-98765c1bb84a" d="M353,34l6.39-17.58c4.76.53,9.46,1.18,9.07,6.8C367.79,32.23,360.07,32,353,34Z"/><path class="2980302c-370f-4e4b-b661-98765c1bb84a" d="M450.42,34.87l6.52-18.44c4.67.5,9.2,1.34,9.23,6.5C466.23,32.63,458.14,32.82,450.42,34.87Z"/><path class="a309862a-e73f-4c89-9270-423d42ddc26d" d="M419.15,261.12V251c2.19.61,4.64.59,5.64,1.78s1.2,4.08.38,5.26C424.16,259.45,421.71,259.89,419.15,261.12Z"/><path class="2980302c-370f-4e4b-b661-98765c1bb84a" d="M350.18,423.66c.06,2.94-.31,5.91-4.1,5.72-3.59-.18-3.7-3.32-3.68-6s.4-5.52,3.93-5.45S350.37,420.75,350.18,423.66Z"/><path class="4f5cab7c-3341-4c51-92ed-1e09d2077f31" d="M439,423.71c-.22,2.85-.56,5.71-4,5.68-3.63,0-3.84-2.93-3.79-5.75,0-2.64-.06-5.63,3.54-5.65S438.71,421.1,439,423.71Z"/><path class="f879b64e-650f-49ed-a5e1-6fed89468195" d="M338,453.39l-3.31,3.6c-.87-1.2-2.4-2.4-2.41-3.61s1.53-2.42,2.38-3.63Z"/><path class="f879b64e-650f-49ed-a5e1-6fed89468195" d="M324.09,455.82c-1.67.39-3.44,1.3-5,1-1-.2-2.36-2.15-2.33-3.28s1.23-3.28,2.31-3.58c1.27-.36,3,.77,4.46,1.25Z"/><path class="f879b64e-650f-49ed-a5e1-6fed89468195" d="M375.71,359.74c-1.64.42-3.38,1.36-4.88,1.07-1-.19-2.34-2.17-2.3-3.3s1.25-3.26,2.34-3.57c1.29-.36,3,.74,4.51,1.21Z"/><path class="c242e140-7060-4e59-a6c8-c95741891933" d="M371.91,229.47l3.48-3.72c.86,1.22,2.33,2.4,2.4,3.66s-1.39,2.38-2.17,3.57Z"/><path class="f879b64e-650f-49ed-a5e1-6fed89468195" d="M202.36,167.74c-1.55.41-3.27,1.43-4.6,1.06-1.1-.31-2.35-2.24-2.4-3.49s1.26-3.18,2.26-3.37c1.49-.29,3.24.67,4.87,1.11Z"/><path class="1a610bb6-662a-44ce-9390-936a2550f19e" d="M357.58,231.62c-1.6.46-3.3,1.45-4.76,1.18-1-.19-2.31-2.2-2.26-3.34s1.29-3.21,2.39-3.52c1.36-.38,3.11.61,4.69,1Z"/><path class="2980302c-370f-4e4b-b661-98765c1bb84a" d="M555.53,196.31c1-3.29-.93-9,4.59-8.89s4.22,5.74,4.29,9.25,1,8.8-4.29,8.73C554.69,205.33,556.42,199.83,555.53,196.31Z"/><path class="a309862a-e73f-4c89-9270-423d42ddc26d" d="M392.37,455.86c-.16-3,.13-6,3.68-6s4.29,3.18,4.29,6.15c0,2.71-.71,5.55-4,5.54C392.79,461.52,392.08,458.73,392.37,455.86Z"/><path class="a309862a-e73f-4c89-9270-423d42ddc26d" d="M569.56,359.59c.31,3.13-.32,6-3.93,5.95s-4-3.22-4-6,.44-5.75,4-5.7S570,356.57,569.56,359.59Z"/><path class="a309862a-e73f-4c89-9270-423d42ddc26d" d="M429.83,231.65c.32,3.15-.38,6-4,5.89s-3.94-3.27-3.94-6.08c0-2.66.43-5.58,3.79-5.65C429.45,225.74,430.24,228.5,429.83,231.65Z"/><path class="a309862a-e73f-4c89-9270-423d42ddc26d" d="M343.43,168c-.22,2.75-.73,5.69-4.22,5.57s-3.91-3.08-3.88-6,.38-5.78,3.93-5.64S343.22,165,343.43,168Z"/><path class="a309862a-e73f-4c89-9270-423d42ddc26d" d="M171.33,391.73c-.08-2.8.13-5.85,3.68-5.89,3.71,0,4.3,3.1,4.33,6.09,0,2.74-.64,5.55-3.9,5.61C171.84,397.6,171.15,394.78,171.33,391.73Z"/><path class="a309862a-e73f-4c89-9270-423d42ddc26d" d="M328.73,392c-.17,2.73-.78,5.57-4.06,5.5-4-.09-4.06-3.37-4-6.44,0-2.74.65-5.37,3.82-5.27C328.14,385.93,328.55,389.08,328.73,392Z"/><path class="a309862a-e73f-4c89-9270-423d42ddc26d" d="M291,455.66c-.06-2.8.07-5.88,3.73-5.83s4.25,3.1,4.25,6-.77,5.75-4.2,5.69S290.86,458.55,291,455.66Z"/><path class="a309862a-e73f-4c89-9270-423d42ddc26d" d="M429.15,327.31c.27,3.31-.23,6.3-4.06,6.23-3.5-.06-3.87-3.13-3.89-5.87s.32-5.79,3.85-5.86S429.61,324.29,429.15,327.31Z"/><path class="a309862a-e73f-4c89-9270-423d42ddc26d" d="M290.48,199.37c.27,3.21-.22,6.13-3.86,6.17s-4.06-3.1-4.08-5.94.37-5.78,3.91-5.79S290.94,196.39,290.48,199.37Z"/><path class="a309862a-e73f-4c89-9270-423d42ddc26d" d="M569.42,167.41c.26,3.19-.22,6.21-4,6.12-3.66-.09-3.91-3.29-3.91-6.11s.46-5.57,3.83-5.62C568.83,161.75,569.83,164.3,569.42,167.41Z"/><path class="a309862a-e73f-4c89-9270-423d42ddc26d" d="M177.18,199.64c-.2,2.87-.67,5.88-4.26,5.9-3.11,0-3.87-2.53-3.82-5.29s-.26-6.27,3.68-6.42C176.3,193.7,176.92,196.75,177.18,199.64Z"/><path class="2980302c-370f-4e4b-b661-98765c1bb84a" d="M555.15,327.74c-.36,2.71-.77,5.66-4.31,5.66s-4.26-2.94-4.24-5.87.76-5.65,4.28-5.56S554.87,324.91,555.15,327.74Z"/><path class="2980302c-370f-4e4b-b661-98765c1bb84a" d="M336.48,263.81c-.37,2.72-.83,5.66-4.37,5.59s-4.21-3-4.18-5.94.82-5.64,4.35-5.49S336.23,261,336.48,263.81Z"/><path class="2980302c-370f-4e4b-b661-98765c1bb84a" d="M446.26,263.33c.27-2.75.91-5.48,4.28-5.37,3.6.11,4.32,3,4.24,5.95s-.88,5.65-4.41,5.48C446.69,269.23,446.43,266.19,446.26,263.33Z"/><path class="2980302c-370f-4e4b-b661-98765c1bb84a" d="M421.45,423.71c-.2,2.82-.71,5.68-4.22,5.69-3.71,0-4.29-3-4.27-5.87s.75-5.68,4.3-5.57S421.32,420.84,421.45,423.71Z"/><path class="2980302c-370f-4e4b-b661-98765c1bb84a" d="M497.49,327.73c.28-2.94.8-5.82,4.33-5.77s4.26,2.8,4.24,5.67-.75,5.85-4.4,5.76S497.79,330.35,497.49,327.73Z"/><path class="2980302c-370f-4e4b-b661-98765c1bb84a" d="M243.76,423.59c-.29,2.9-.8,5.77-4.25,5.82-3.64.05-4.31-2.85-4.32-5.76s.68-5.64,4.12-5.68C242.91,417.92,243.48,420.84,243.76,423.59Z"/><path class="2980302c-370f-4e4b-b661-98765c1bb84a" d="M464.63,327.71c-.19,2.95-.9,5.85-4.44,5.84s-4.31-2.93-4.31-5.89.8-5.89,4.35-5.84S464.52,324.71,464.63,327.71Z"/><path class="2980302c-370f-4e4b-b661-98765c1bb84a" d="M409.16,359.76c-.2,2.95-.94,5.84-4.49,5.79s-4.28-3-4.27-5.93.84-5.88,4.39-5.79S409.07,356.76,409.16,359.76Z"/><path class="2980302c-370f-4e4b-b661-98765c1bb84a" d="M245.16,135.62c.18-2.95.86-5.89,4.43-5.8s4.37,2.91,4.33,5.92-.9,5.84-4.43,5.8S245.32,138.56,245.16,135.62Z"/><path class="2980302c-370f-4e4b-b661-98765c1bb84a" d="M388.9,263.58c-.16,2.94-.79,5.88-4.31,6s-4.41-2.77-4.44-5.75.68-5.9,4.22-6S388.75,260.56,388.9,263.58Z"/><path class="2980302c-370f-4e4b-b661-98765c1bb84a" d="M383.49,327.56c-.17,2.93-.8,5.87-4.31,6s-4.4-2.75-4.44-5.74.67-5.91,4.19-6S383.31,324.56,383.49,327.56Z"/><path class="2980302c-370f-4e4b-b661-98765c1bb84a" d="M369.62,199.57c-.17,2.93-.81,5.87-4.31,6s-4.4-2.76-4.44-5.74.68-5.91,4.2-6S369.45,196.56,369.62,199.57Z"/><path class="2980302c-370f-4e4b-b661-98765c1bb84a" d="M249.09,199.6c-.18,2.93-.83,5.86-4.35,5.94s-4.37-2.8-4.4-5.78.71-5.9,4.23-5.94S248.93,196.6,249.09,199.6Z"/><path class="2980302c-370f-4e4b-b661-98765c1bb84a" d="M396.81,232c-.28,2.86-1.13,5.63-4.5,5.51-3.7-.13-4.3-3.18-4.24-6.21s1-5.66,4.39-5.51C396.05,226,396.76,229,396.81,232Z"/><path class="2980302c-370f-4e4b-b661-98765c1bb84a" d="M464,455.59c-.18,2.93-.82,5.87-4.34,6s-4.38-2.79-4.42-5.76.69-5.9,4.22-6S463.86,452.58,464,455.59Z"/><path class="a309862a-e73f-4c89-9270-423d42ddc26d" d="M432.41,391.56c-.23,2.9-.81,5.88-4.34,6s-4.44-2.79-4.49-5.74.71-5.9,4.23-6S432.18,388.58,432.41,391.56Z"/><path class="a309862a-e73f-4c89-9270-423d42ddc26d" d="M554,423.53c-.22,2.9-.78,5.89-4.31,6s-4.46-2.75-4.52-5.71.68-5.91,4.21-6S553.77,420.55,554,423.53Z"/><path class="a309862a-e73f-4c89-9270-423d42ddc26d" d="M470.82,359.48c-.23,3-.8,5.94-4.33,6.06s-4.46-2.76-4.51-5.72.69-5.9,4.21-6S470.55,356.57,470.82,359.48Z"/><path class="a309862a-e73f-4c89-9270-423d42ddc26d" d="M419.08,135.62c-.24,2.92-.88,5.88-4.41,5.94s-4.4-2.86-4.43-5.81.77-5.9,4.3-5.93S418.86,132.65,419.08,135.62Z"/><path class="a309862a-e73f-4c89-9270-423d42ddc26d" d="M424.58,199.55c.27-2.92,1-5.87,4.55-5.73s4.35,3,4.28,6-1,5.84-4.53,5.73S424.79,202.45,424.58,199.55Z"/><path class="a309862a-e73f-4c89-9270-423d42ddc26d" d="M413.75,231.5c-.24,3-.82,5.94-4.35,6s-4.45-2.78-4.49-5.74.71-5.9,4.23-6S413.49,228.59,413.75,231.5Z"/><path class="a309862a-e73f-4c89-9270-423d42ddc26d" d="M348.85,391.68c.22-2.93.88-5.9,4.42-5.87s4.44,2.87,4.41,5.87-.89,5.86-4.41,5.87S349.07,394.61,348.85,391.68Z"/><path class="a309862a-e73f-4c89-9270-423d42ddc26d" d="M496.94,423.73c-.26,2.93-1,5.86-4.51,5.83s-4.33-3-4.33-5.92.86-5.88,4.41-5.82S496.78,420.75,496.94,423.73Z"/><path class="43de2a2e-efb0-4d46-8f5c-e05f445ad994" d="M616.36,539c6,5.74,1.24,9.9,2,15.4l6-9.43-1.89,8.61-1.68-.78-4.1,1.09C616.14,549.14,620.14,545.31,616.36,539Z"/><path class="cb5bd3d1-3057-427f-9694-2319f600fb33" d="M885.43,547.63l-.22-.85-2.76,5.47H886c-1.87,1.55-3.33,1.32-4.27.05l-6.75.58-1.27-.94c1.44-2.67,2.47-5.55,6.71-4.5l-1.14,4.23C882.4,552.84,882.12,545,885.43,547.63Z"/><path class="87e435cc-cdca-4512-8271-1bc6feebd810" d="M144.63,553.36l.7-5.86h-3.24l-2.15,6-.91-.27,4.2-15.09-.41,8.05,3,.31,3.11-7.86-3.31,14.77Z"/><path class="d3a4637f-b7f0-4509-8b96-90f34222441c" d="M151.1,550.94l-1.27-2.6,3.58-1.89-.82,5.69,2-3.51,4.72-1.54,1.15,2.53-3.08,4.22,1.18-6.55-4.16,5.19Z"/><path class="7f9abb92-3110-43a6-8e8a-3a55cf907b76" d="M718.21,383.18l-.54.84c-11.78-1.7-19.33-9.86-28.59-17l-12-23.9-.48,4.09-3.75-16.73,1.05-.56L680.71,347c5.49,1.14,6.07,9.7,10.93,9,5.11.93,5.37,7,10.55,4.37l.82,1.86,1-1.82.73.92h19.83l4.87,3.29,9.49-7.52.5-6.09,3.7.33-2.39-2.89,6.55-4.62,7.78-17.49c10-5.29,4.77-20,13.4-31.12-6.72-20.23,6.61-46.74-12.6-64.17l-17.64-8.27,3.14,5.4-.43.35-2.77-4L734,226.66l3-3.9-3.22,2.28-1.9-.41-1.72,2.29-2.84-2.57-2.59-4.06-1.47,1.95c-.15-.78-.28-1.42-.41-2.06l-2.93.19,2.42,4.95-5.29-4.43-1,1.21-2.49-1.19-.31-1.85-3.18-2.44c-15.55,1.88-28.45,13.92-34.27,36.83-3.11,5.86,1,19.39-5.14,31.08-6.06-9.24-3.56-49.68,4-57.68,10.37-11,22-19.84,38.11-20.18,22.88-3.07,40,5.63,54.48,22.92,15,18,2.23,39.31,6.72,61.29l1-1.48-.45,1.07,2.48.63-2.41,22.6-1.46-.15c1.65,4.52,2.17,8.79-2.25,12.08l-4.31-.51c-13.41,24.4-3.72,61.13-37.58,71.73l4.21-4L728,387a26.93,26.93,0,0,0-4.25-2.49A32.36,32.36,0,0,0,718.21,383.18Z"/><path class="7f9abb92-3110-43a6-8e8a-3a55cf907b76" d="M731.24,268.43c7.08-6.17,12.25-1.45,17.73-2.68l3.63,1.5,2-1.3c2.91,4.41,11.66,5.56,7.18,14.25l1.68,4.86-6.21,2.9L752,286.16l.29-2.6-1.9-.67c.26-1.75.52-3.56-1.92-4.48.49,3.63-.91,5.77-4.69,5.48-3.46-.27-4.09-2.59-3.38-5.86-2.18.84-4.33,1.21-4.35,4.2l-3.2-.43L736,278c-3.92.7-6.19,2.52-5.32,7.07l-2.44-1.25C723.83,275.82,729.17,271,731.24,268.43Z"/><path class="7f9abb92-3110-43a6-8e8a-3a55cf907b76" d="M687.66,267.64l-5.37.93-.24-1.2,1.94-.58-1.21-1.09h2.43l-.4-1.29,4.83-3.18,2.47.41.18-1.39c6.1,1.12,12.71,1.15,18.17,3.66s9.5,7.61,1.36,13.43L708.78,276l1.75,3.41-2.41.72,1.35-2.41-2.79,1.94-3.6-9.76c1.71,9.74-1.12,10.46-4.75,9.92s-2.78-3.23-2.49-5.76c-1.89.88-4,1.29-3.57,3.65l-3.53,1.6-4.37-3.45c4.46-7,11.52-6.17,21.77-5.91l-12.51-3.78-5.86.57Z"/><path class="072ce86c-a1cc-4bfd-8ff0-561aa4665eda" d="M693.19,329.47l2.45-2.84c17.14,1.19,32.44,4.13,49.88,2.64l-10,8.73c-10.39,6.25-19.84,6.82-29.81.33l-.56-2.37c10.32,3.35,20.12,4.63,32.56-1.17Z"/><path class="072ce86c-a1cc-4bfd-8ff0-561aa4665eda" d="M731.33,308.73l-3-10.26,4.68,4.45,2.8,14.92c-9.83,2.49-18.07-2.95-27.32-4.23l-.76-1.77c4.23-1.37,8.43-3.51,10.1,2.56l9.88-5.58,5.93,4.24-1.8-9.91Z"/></g></g></svg>