<svg xmlns="http://www.w3.org/2000/svg" width="1000" height="944" viewBox="0 0 1000 944">
  <defs>
    <style>
      .cls-1 {
        fill-rule: evenodd;
      }
    </style>
  </defs>
  <path id="portrait_svg" data-name="portrait svg" class="cls-1" d="M522,61c72.011-1.657,140.055,43.805,170,88l21,22c14.369,29.446,22.117,65.64,27,95l-7,24c-2.22,10.2,2.8,20.364,0,27-1.753,4.156-14.379,65.86-11,74,3.5,8.489,11.674,11.544,19,16-3.547,7.2-14.048,16.376-15,24l6-5c1.761-4.749,4.422-7.43,8-5,2.7,1.6,1.377.339,3,3,5.958,13.188-1.968,39.112-5,50-5.08,18.241-1.235,43.877-1,55l-2-1c0.231-8-.761-9.759-5-13h-1v3c-1.525,6.655.806,8.48,5,12q-2.5,5-5,10c3.089-2.451,3.316-3.37,6-4l-1,1c0.489,12.815-5.328,22.765-15,32l-19-3c-10.573,18.427-14.154,40.333-22,61-6.279,16.539-16.131,36.147-19,58-3.521,26.826.5,51.829-8,77-15.705,46.514-83.472,95.308-122,122,5.242-14.392,23.668-13.922,27-31-7.343-9.317-11.837-10.08-18-16h4v-4c-12.726-2.9-22.327-16.18-39-19-2.083,3.114-1.871,3.574-6,5l-1-2,1-4-5,1q-1,4-2,8h-6v-4c3.263-.027,2.188,1.348,5-1l-2-1c-14.876,1.475-32.973-13.5-50-16l1-2c0.51-2.177,1.154-2.6-1-2-13.913,3.874-48.753-48.21-67-45-0.545-8.747-4.49-15.193-6-21-3.109,1.941-1.376,2.478-5,2-0.706-12.019-32.956-75.826-41-85h-1q-1,12-2,24h-1c0.334-45.147-10.875-63.835-22-99-3.12-9.863-12.773-28.337-8-41,3.527,22.815,13.659,34.654,15,57,21.587,2.976,12.022,35.265,24,47,2.951,0.6,1.071-1.046,3,2l-4-1,2,5c7.192-1.174,5.689,11.788,9,20,19.753-3.771,25.745,42.848,58,35v10h4c1.307-4.472-.662-2.009,3-4,0.85,9.074,7.472,13.708,13,18h8l7-6q0.5,5,1,10l4,1v-8l5,1c0.066,5.514-.7,3.306,2,7h1c6.755-12.171,39.058,4.3,44-12l2,2c-3.027,1.932-1.619.2-3,4l2,2c8.334-1.3,34.968-3.885,42,1l-4,5c9.679-1.576,12.651.841,16,7,11.671-4.752,18.054-8.465,27-18l5,2-2-5,3-3q0.5,3.5,1,7c1.525-2.286,1.826-1.215,1-4,1.018-5.7,1.327-9.064,9-11q1-13,2-26c4.936,1.725,8.947-.33,14,4v-4c-1.165-3.881-.507-5.072-4-7-2.9,1.742-3.134,1.359-6-2l4-3c7.22-.441,1.738-1.674,6-7l19-8q2-8,4-16c2.632-5.019,10.862-11.2,14-16,3.708-5.667,3.02-27.175,5-31l7-2q2.5-11,5-22c2.829-6.887,22.628-15.923,27-29,6.679-19.978.527-56.687,11-72,4.585-4.106,11.327-7.728,17-13-5.956-57.135-5.689-134.1-13-195-2.314-19.279,1.309-55.555-16-63-1.089,2.969-1.809,1.034-3-1,3.233-2.356,2.29-.72,0-4l-5-6c1.873,4.363,3.312,4.751,4,11h-1c-6.839-8.727-22.768-19.5-26-30,2.042-1.8.707-.015,2-3-4.6-.242-3.379-0.871-9-2q-0.5,2-1,4c-6.014-1.343-52.486-27.056-53-28-3.929,2.3-4.572,3.073-6,8h1l4-2c1.1,9.79,6.64,10.488,9,19-9.954-3.526-10.452-14.186-22-18q-0.5,1-1,2v5l-6-3q-0.5,1.5-1,3,1,2,2,4l-3-1q0.5-3,1-6c2.052-4.463,4.33-5.313,8-8l5,2-2-3h-8a26.216,26.216,0,0,1-8,8l-9-6c1.385,4.882,1.438,3.182,1,8l-5-1v9l-3-2c-0.771-5.992-2.3-7.233-6-10h-1c-1.537,4.2.184,2.448-4,4q1-7.5,2-15h-2c-0.859,4.526.116,2.975-3,5l-7-14h-2l-4,10-2-1V117h-1l-5,4c-3.6-2.566-2.06-2.362-6-3-1.3,3.812-2.643,4.812-2,8l4-5c0.3,8.28,2.868,9.71,5,16-6-4.154-10.483-5.878-16-9-0.141-5.364-.5-6.4-3-9-1.558,2.806-1.471,2.338-4,4q-0.5,4.5-1,9l-1-2-4-8-5,3-2-1c0.3-6.708-.12-12.55-3-16h-1c-0.644,3.635-.4,3.027-2,5h-1q-2.5-5-5-10c-13.753,1.008-23.436,6.749-33,11-59.693,26.535-84.344,43.063-107,101l4,3c-5.035,8.288-5.109,14.352-7,22h1c2.395-3.778,1.98-3.852,5-2-2.023,2.8-2.433,2.9-3,5l4,1c-2.447,3.878-2.71,7.755-5,11-3.375.506-1.3-1.054-4,2,2.3,2,3.345,2.088,5,5-18.972,8.24-10.484,67.917-17,96-2.969,12.8-11.451,21.6-12,37-3.827-1.321-2.08,0-4-3-7.4-25.824-16.573-90.976-9-121,3.161-12.531-6.811-52.163-6-58,5.294-38.106,33.29-65.126,60-94l16-6c6-3.668,9.06-11.234,14-16l24-16,9,1c21.45-8.85,50.849-37.024,75-16,10.154-6.294,32.615-7.378,51-10v5Zm-71,1-2,5h1c3-2.341,4.182-1.856,7-3l-1-2h-5Zm-7,1c1.6,2.7.339,1.377,3,3Zm41,0,1,2,1-2h-2Zm54,0c2.164,2.206,2.889,2.206,6,1Zm-79,1,2,4h1V67C461.627,65.1,462.027,65.364,460,64Zm-13,45c3.037,1.943,1.044.328,2,3,0.141,2.105.509,0.35-1,2l-1-2v-3Zm2,5h0Zm81,5c-0.23,4.7-1.135,3.9,2,7h1v-5Zm-21,5,2,2-3,3h-1Q508,126.5,509,124Zm13,0q0.5,2,1,4l-2-2Q521.5,125,522,124Zm-44,2,2,2-1,1Zm70,0v0Zm-7,1q-0.5,3.5-1,7h1v-7Zm-16,1q0.5,3.5,1,7l-2-1v-1Q524.5,130.5,525,128Zm33,2v6l2-1C559.421,130.99,560.046,132.009,558,130Zm-59,2c2.68,3.5,3.139,1.5,0,5h-1Q498.5,134.5,499,132Zm55,0c0.425,2.6-.976.546,1,3v-3h-1Zm61,1,3,3Zm-92,7h4v1Zm102,0q1,5,2,10l7,4c4.8-1.517,3.125-2.188,8-2-2.666-3.759-4.909-6.489-10-8l-1,1,3,7-5-4C629.085,141.934,629.59,141.7,625,140Zm-51,5,2,5-2-1v-4Zm66,15c1.779,3.231,2.606,2-1,4Q639.5,162,640,160Zm13,3c1.715,2.963,4.031,4.42,7,6v-3Zm26,30,2,2-3,1Q678.5,194.5,679,193ZM380,290a64.558,64.558,0,0,0,30,1c0.156,4.24-.825,1.165,3,3,0.852-.662,2.805,2.891,10,4l14-2a88.047,88.047,0,0,1,26,9c4.416,2.4,6.312,9.464,10,12,6.153,4.232,7.2-3.217,7,6,7.307,2.408,6.363,12.7,6,20-6.266,3.953-13.217,12.391-16,20h-7l-13-11v1l10,16v3l-2,1c-5.145,1.284-9.429,2.067-15,1-1.333-9.294-.258-16.474-9-23l-3,1c4.483,8.415,1.15,17.9-6,21H405c-3.881-1.713-5.246-3.161-7-7-2.808-5.159-1.37-11.906,1-17l-1-2-2,2a29.224,29.224,0,0,0-14,10q1,4,2,8h-3l-4-3-8,8-4-1c-1.514-7.036-11.787-10.6-17-14l4-4c5.981-20.642,56.407-28.305,79-20-6.519-11.208-22.284-15.321-37-13-1.011-4.962-.7-3.748-4-6-10.611,2.687-18.286,3.9-30,2v1q1,3.5,2,7l-14-2v1c2,1.893,5.14,1.53,4,4l-12-3-2-6,14,1-2-3c-5.264.815-7.428-.553-10-5l12,3,4-3-7-1c2.784-6.374,13.674-8.143,19-12l-3-4,1-1c8.325,0.69,12.509,2.442,20,4v-1C383.491,293.569,381.832,293.415,380,290Zm-24,9h2c-1.392,1.923-.1.6-2,2v-2Zm187,94c-6.348-.631-7.2-2.187-10-6,0.636-6.418-6.9-21.017-4-30,5.018-15.519,20.864-33.976,31-46h1q0.5,2.5,1,5l16-9c11.536,3.089,24.749,5.161,40,10,0.467-4.4-1.816-3.532,4-5,9.241,3.347,15.162,7.915,25,9q0.5-1,1-2l-7-2,8-3c6.3,10.907,24.755,19.27,34,28l-4-1,5,6c-2.361,4.793-2.633,2.2,0,7l4,2-4,13c-4.419.774-3.714,0.6-6,3,2.957,11.62,8.459,11.551,8,25a46.794,46.794,0,0,1-21,5l4,7h-6c-8.485-2.682-19.065-5.621-26-10,0.3-5.588,1.019-5.838,3-9q-0.5-1-1-2l-10-1v-1c3.361-2.873,3.449-6.72,2-13l-8-7-2,1c10.589,24.383-23,30.392-32,17-4.409-6.457-2.563-14.014,1-20-8.88,3.023-20.161,9.8-25,17l7-3q-1,2.5-2,5l-2,1-10-2v-4l15-15c16.478-9.85,32.054-4.227,48-8,0.783,3.772,18.684,12.3,23,12v-1c-25.108-23.032-53.633-15.759-79,0-5.88,3.653-14.213,4.384-18,10q-1,11.5-2,23l-2-1v-5Zm110-78h0Zm-101,3q0.5,1,1,2Q552.5,319,552,318Zm-189,1h2C363.255,319.977,364.78,319.912,363,319Zm27,3h0Zm261,0q-0.5,1-1,2h3Zm-14,1,3,1ZM401,333c-15.745,6.806-26.052,5.765-34,20h4c7.889-23.754,62.132-11.533,77-3C443.4,337.5,418.384,332.838,401,333Zm37,1,1,3,6,1-2-3Zm8,5c1.355,2.055,1.12,1.609,3,3v-3h-3Zm176,2c-9.348,3.7-23.968,1.468-29,6,25.231-.219,44.99,6.06,61,15l2-1q1-4,2-8l-2-1c-4.846,1.607-3.915,3.072-8,3l4-5C646.3,343.891,633.223,341.2,622,341Zm-182,6c1.259,3.023-.018,1.2,2,3Zm203,0h0Zm-231,1-2,1,2,4h2l1-4Zm33,15v0Zm2,0v0Zm154,1-3,3q0.5,1,1,2h1l4-2Zm-155,4c-0.219,3.33-.933,2.3,1,5l10-3v-1l-2-1h-9Zm-174,3c3.921,2.142,6.067,3.8,8,8C276.079,376.858,273.933,375.2,272,371Zm147,7,1,3h-1v-3Zm22,0c2.21,2.559,1.2.579,1,4-7.846,2.733-8.357,6.963-15,8l-3-1v-3c1.923-1.392.6-.1,2-2l-15,4v-2c10.908-3.121,13.834-4.434,23-3Zm-37,2c3.583,1.782,1.184-.531,3,3h-3v-3Zm5,1h0Zm225,0c2.52,1.627.166,0.985,3,0h-3Zm-60,2h3l-2,2Q574.5,384,574,383Zm-315,4c7.624,2.488,11.749,14.406,12,24l-1,2c-6.711-2.228-1.149-.235-7,1C262.525,401.858,255.945,398.858,259,387Zm146,0h3v2h-6Zm-18,1,5,1Zm8,0c3.635,0.644,3.027.4,5,2h-6Zm222,8a94.243,94.243,0,0,0,18,9v1l-2,1c-12.8-1.87-36.534-.58-41-10l27,6Q618,399.5,617,396Zm-328,5v0Zm306,7,31,7v1l-4,1C614.281,415.371,599.883,415.034,595,408Zm137,6q-0.5,1-1,2l1,1,3-3h-3Zm8,0c2.042,1.8.707,0.015,2,3h-2v-3Zm-473,1c2.042,1.8.707,0.015,2,3h-2v-3Zm447,12q-0.5,2.5-1,5h1q0.5-2.5,1-5h-1Zm-435,6,4,3q-2,11.5-4,23h-1l-1-1Q278,445.5,279,433Zm446,9q3,18.5,6,37l2-1C733.073,468.932,730.186,447.259,725,442ZM538,454c6.871,6.277,12.572,12.973,20,19-1.431,21.329,11.551,44.934,9,63-23.233,6.624-26.608.273-47-2H500c-7.519-3.342-12.337-11.1-22-14H452l-4-12c7.82,2.978,17.747-8.756,32-3,9,3.761,10,10.989,12,19l2-1c0.49-5.324,33.107-27.1,45-25,2.593,4.539,5.727,6.857,6,11,5.182-.61,6.938-0.042,11,2l-3,11,3-2c4.1-14.917-.481-26.465-4-41h-1l-2,2c1.7,4.534,2.524,9.675,0,13l-1-1C545.879,477.8,538.532,470.516,538,454ZM258,465v0Zm19,1h0Zm-14,1h0Zm14,1h0Zm0,2h0Zm443,1q2,13.5,4,27l3-2C727.567,484.043,726.38,475.962,720,471Zm-443,1h0Zm443,32q-0.5,3.5-1,7c1.962-2.189,2.282-3.194,3-7h-2Zm-194,5v2C526.977,509.255,526.912,510.78,526,509Zm-272,1c6.947,6.509,7.551,15.455,16,21,3.953-2.118,4.99-3.391,11-4v9C264.545,536.162,255.545,524.239,254,510Zm269,1-7,8,9-8h-2Zm-244,1v0Zm191,12c-0.22,1.467.414,1-1,3Zm61,18c2.066,1.963,1.035.375,2,4h-1Q531.5,544,531,542Zm14,1c3.14,2.057,2.069.478,3,5h-1l-2-1v-4Zm-22,6h2c-1.392,1.923-.1.6-2,2v-2Zm-30,3,5,4-1,4-4,1-2-2Q492,555.5,493,552Zm-95,12,2,3Zm167,63c-15.833.911-45.208,14.759-55,18-14.849,4.915-52.088-15.366-69-18l-3-7q0.5-3,1-6h4l2,2-3,5h1l6-7c29.516,16.571,85.875,14.268,115,0q0.5-3,1-6l-24-8c-13.637-2.639-25.309,3.8-36,3-14.017-1.049-27.283-12.19-38-6-1.507-8.291-65.293-9.164-77-10v-7c4.642-6.383,10.384-10.688,16-16,1.051,9.1,8.434,15.506,18,16,30.238-11.1,47.161-.876,71,6l35-5c9.906,2.087,22.691,7.74,31,10l3-1c9.458-.53,12.94-5.441,20-7,8.818-1.947,8.88,4.147,20,3v4c-10.727,4.29-11.872,14.248-20,20-4.555,3.223-11.479,1.785-15,6C566.442,619.191,565.432,621.379,565,627Zm-70-62h2c-1.392,1.923-.1.6-2,2v-2Zm-22,70-1,1,2,2,3-1v-1ZM368,669c2.148,2.21,1.979,1.939,1,5h-1v-5Zm-8,6c3.289,1.643,3.193,2.032,5,5v1C360.588,679.414,361.327,679.428,360,675Zm9,5c2.148,2.21,1.979,1.939,1,5h-1v-5Zm-55,6q1,6.5,2,13C313.505,696.512,313.7,691.272,314,686Zm0,14c2.534,2.946,2.324,13.94,2,22l-2-1V700Zm63,0,1,3h2C378.4,700.3,379.661,701.623,377,700Zm5,3,4,1Zm25,5,4,2Zm-93,15c2.354,4.253,3.836,18.49,2,23h-1Q314.5,734.5,314,723Zm104,0,1,2,1-2h-2Zm-66,4h0Zm648,273H635q9-36,18-72c1.98-7.295,1.489-12.524-1-16q9-37,18-74c7.839-37.383-12.252-65.181-13-93h1q0.5,1,1,2l14,24,43,46,28,13,34,23c37.434,14.188,77.407,16.958,114,29l108,40v78ZM315,748h3c-2.851,30.666,54.57,57.812,71,79C362.215,819.607,321.657,771.209,315,748Zm25,252H0c-0.216-14.9-2.09-98.371,3-102l56-20c17.8-4.187,35.185-1.547,50-7l93-46,42-17,23-3c15.933-9.354,21.185-29.591,34-42h1C288.64,857.287,337.5,914,340,1000Zm47-188,6,6C389.345,816.35,388.69,815.611,387,812Zm3,16c4.493,1.216,3.223.062,5,4C390.812,830.707,391.865,831.447,390,828Zm34,5,4,2C424.349,834.088,425.955,835.038,424,833Zm-23,2c4.249,1.333,4.725,1.928,7,5Zm25,6c1.923,1.392.6,0.1,2,2Zm-14,3h4v1Zm7,4,5,1,3,5h-1Zm9,6,26,18v1C445.97,871.178,431.637,860.623,428,854Zm96,29h3l-3,5c-5.5,1.745-9.588,3.049-18,3v-2C515.486,889.407,520.081,888.005,524,883Zm-44,3c3.027,1.588,1.941-.825,4,3C480.973,887.412,482.059,889.825,480,886Zm5,2c3.981,1.968,8.929.763,11,5h-4C487.618,891.505,486.989,892.117,485,888Zm-5,8c4.081,2.722,2.164,4.418,8,6l-2-4h4l-1,2v4l-22,5v1l1,1,44-6c16.753,5.685,66.965,52.273,60,78l2-1c0.518-42.54-29.459-45.269-46-69,34.613,14.236,76.323,50.21,87,87h-4c-3.422-7.632-9.445-11.266-18-14-5.078,3.274-7.5,11.479-12,14H518c-8.665-16.31-73.588-62.593-95-66v1l1,2c22.222,5.06,76.357,45.469,89,62v1a435.741,435.741,0,0,1-52-3l-6,3c-20.3,2.97-38.976-.746-49-8-11.548,3.27-16.466,8.1-35,8v-1c15.9-32.935,38.728-60.406,69-79Zm-9,18c5.632,11.319,46.028,36.692,58,45C523.635,945.8,484.361,921.623,471,914Zm180,0h2C651.255,914.977,652.78,914.912,651,914Zm-183,5c12.548,16.332,38.029,30.209,55,42C514.387,943.375,484.2,929.577,468,919Zm104,65q-0.5,1-1,2l2-2h-1Z" transform="translate(0 -56)"/>
</svg>
